<?xml version="1.0" encoding="UTF-8"?>
<svg version="1.1" xmlns="http://www.w3.org/2000/svg" width="770" height="324">
<path d="M0 0 C5.93709486 0.07329747 11.57209468 2.41024528 17.125 4.3125 C17.85976563 4.539375 18.59453125 4.76625 19.3515625 5 C37.50813385 10.97747205 50.90134181 26.90890372 59.375 43.375 C61.3977128 47.57065361 63.12722746 51.72927442 64.47265625 56.1875 C65.09813128 58.32054656 65.09813128 58.32054656 65.93359375 60.375 C68.20633936 66.29066322 68.62536737 71.96338677 68.9140625 78.2734375 C69.0009358 81.35660726 69.0009358 81.35660726 70.125 84.3125 C70.3631333 88.85024018 70.31019375 93.39419073 70.3125 97.9375 C70.32474609 99.18402344 70.33699219 100.43054688 70.34960938 101.71484375 C70.35929114 107.82726198 70.16712557 113.46576299 68.61743164 119.38964844 C67.8806218 122.26675023 67.5925278 125.17856189 67.25 128.125 C66.318606 134.88488303 64.52164972 140.94222288 62.125 147.3125 C61.71314453 148.55580078 61.71314453 148.55580078 61.29296875 149.82421875 C58.57115361 157.5422425 53.89130143 163.75193451 49.125 170.3125 C48.465 171.3025 47.805 172.2925 47.125 173.3125 C46.465 173.3125 45.805 173.3125 45.125 173.3125 C44.795 174.3025 44.465 175.2925 44.125 176.3125 C42.3125 177.84765625 42.3125 177.84765625 40.125 179.375 C37.10871816 181.39203853 37.10871816 181.39203853 35.125 184.3125 C33.1806658 185.41782106 31.19409902 186.44970928 29.1875 187.4375 C28.10597656 187.97632813 27.02445313 188.51515625 25.91015625 189.0703125 C23.125 190.3125 23.125 190.3125 21.125 190.3125 C21.125 190.9725 21.125 191.6325 21.125 192.3125 C-4.63499412 197.06405344 -4.63499412 197.06405344 -15.875 194.3125 C-17.03708984 194.09400391 -17.03708984 194.09400391 -18.22265625 193.87109375 C-22.97077385 192.96707822 -26.90220816 191.53017456 -31.1484375 189.21484375 C-33.03407385 188.17105722 -33.03407385 188.17105722 -35.875 187.3125 C-35.875 186.6525 -35.875 185.9925 -35.875 185.3125 C-36.865 184.9825 -37.855 184.6525 -38.875 184.3125 C-40.18009719 195.46408936 -39.95508256 206.60475479 -39.875 217.8125 C-39.84838043 221.59374702 -39.82844271 225.37494466 -39.8125 229.15625 C-39.80420166 230.01665894 -39.79590332 230.87706787 -39.78735352 231.7635498 C-39.78239868 232.96630554 -39.78239868 232.96630554 -39.77734375 234.19335938 C-39.77210693 234.89440796 -39.76687012 235.59545654 -39.76147461 236.31774902 C-39.88133542 238.42381944 -40.30085491 240.2868151 -40.875 242.3125 C-41.6278125 242.48265625 -42.380625 242.6528125 -43.15625 242.828125 C-50.51763729 244.50756937 -50.51763729 244.50756937 -57.84375 246.33203125 C-69.10029354 249.25181262 -80.29790486 251.13516829 -91.875 252.3125 C-91.875 252.9725 -91.875 253.6325 -91.875 254.3125 C-92.865 253.9825 -93.855 253.6525 -94.875 253.3125 C-95.8601521 247.59261458 -96.00010153 242.07997053 -95.95729065 236.28346252 C-95.95406152 235.28926188 -95.95083239 234.29506123 -95.94750541 233.2707333 C-95.93546677 229.94810861 -95.91608639 226.62556802 -95.89672852 223.30297852 C-95.88658187 220.91774171 -95.87688861 218.53250293 -95.86761475 216.14726257 C-95.84391642 210.3482348 -95.81549687 204.54924406 -95.78498668 198.75024844 C-95.74972898 192.00036018 -95.72030626 185.25045027 -95.69123887 178.50053298 C-95.63925113 166.46395803 -95.58267156 154.42740924 -95.52319336 142.39086914 C-95.46543858 130.70110084 -95.40985319 119.01132554 -95.35717773 107.3215332 C-95.35392802 106.60051934 -95.3506783 105.87950547 -95.3473301 105.1366427 C-95.33103996 101.51939206 -95.31479239 97.90214122 -95.29856598 94.28489029 C-95.16397689 64.29405997 -95.02108318 34.30327717 -94.875 4.3125 C-79.035 4.3125 -63.195 4.3125 -46.875 4.3125 C-45.95659233 7.98613066 -45.37952219 11.56462088 -44.875 15.3125 C-43.885 15.3125 -42.895 15.3125 -41.875 15.3125 C-41.45347656 14.72597656 -41.03195312 14.13945313 -40.59765625 13.53515625 C-34.86244318 6.13530084 -21.10019011 2.19680971 -12.09765625 0.91796875 C-8.0716737 0.50377301 -4.03388065 0.32531296 0 0 Z M-38.45755005 56.57711792 C-43.4822452 62.72884548 -41.01962491 77.48434412 -41.0078125 85.0546875 C-41.00848828 86.4356386 -41.00946057 87.81658958 -41.01071167 89.19754028 C-41.01217281 92.06660108 -41.01008368 94.93563041 -41.00537109 97.8046875 C-40.99964218 101.46945604 -41.00298273 105.13415182 -41.00894356 108.79891777 C-41.01256461 111.64029485 -41.01140404 114.48165477 -41.00881577 117.32303238 C-41.00783218 119.32708026 -41.01084852 121.33112883 -41.01394653 123.33517456 C-41.01079437 124.55729645 -41.00764221 125.77941833 -41.00439453 127.03857422 C-41.00359894 128.10824432 -41.00280334 129.17791443 -41.00198364 130.27999878 C-40.83125657 136.85767005 -40.83125657 136.85767005 -37.125 142 C-29.5908554 146.79586207 -18.68073201 148.64581383 -9.875 147.3125 C-4.61226983 145.67052819 0.1992857 143.2382143 4.125 139.3125 C4.99465506 137.18303397 4.99465506 137.18303397 5.125 135.3125 C5.785 135.3125 6.445 135.3125 7.125 135.3125 C17.47031483 120.4692222 17.84027909 100.00566017 15.6640625 82.6328125 C13.56154659 73.30753605 9.57013282 63.55031398 2.125 57.3125 C1.58875 56.714375 1.0525 56.11625 0.5 55.5 C-0.95061063 53.98569006 -0.95061063 53.98569006 -3.875 54.3125 C-4.37 52.8275 -4.37 52.8275 -4.875 51.3125 C-15.15601265 45.95705961 -29.79505921 49.65490958 -38.45755005 56.57711792 Z " fill="#6671E4" transform="translate(530.875,67.6875)"/>
<path d="M0 0 C1.40765625 0.04060547 1.40765625 0.04060547 2.84375 0.08203125 C9.37002608 0.36147125 15.09099141 1.58511687 21.25 3.75 C21.25 4.41 21.25 5.07 21.25 5.75 C21.93707031 5.85957031 22.62414062 5.96914062 23.33203125 6.08203125 C24.23308594 6.24058594 25.13414062 6.39914063 26.0625 6.5625 C26.95582031 6.71332031 27.84914063 6.86414063 28.76953125 7.01953125 C31.48833846 7.82018786 32.37654653 8.70476856 34.25 10.75 C35.24 11.08 36.23 11.41 37.25 11.75 C37.25 12.41 37.25 13.07 37.25 13.75 C37.83007812 14.01554687 38.41015625 14.28109375 39.0078125 14.5546875 C45.29946827 17.90877577 49.94484845 23.24477897 53.92578125 29.05078125 C55.32064069 31.02482663 55.32064069 31.02482663 58.25 32.75 C59.0244984 34.40845925 59.78904259 36.07364182 60.46435547 37.77490234 C61.24813619 39.74531442 62.11014084 41.65928851 63.00390625 43.58203125 C66.02464877 50.19447525 68.81312813 56.41714682 69.921875 63.66015625 C70.24214122 66.01487019 70.24214122 66.01487019 71.3125 69.25 C74.05891624 79.50328731 73.36885965 90.34744265 73.3125 100.875 C73.30747437 102.51562363 73.30291335 104.15624876 73.29882812 105.796875 C73.28790805 109.78128742 73.27070218 113.7656269 73.25 117.75 C70.96515447 118.89242277 69.71317112 118.87340344 67.17514038 118.87025452 C65.89627205 118.87231651 65.89627205 118.87231651 64.59156799 118.87442017 C63.65433395 118.87082489 62.71709991 118.86722961 61.75146484 118.86352539 C60.76606216 118.86367142 59.78065948 118.86381744 58.76539612 118.8639679 C55.49722111 118.86326933 52.22910259 118.85547955 48.9609375 118.84765625 C46.69935131 118.84579187 44.43776472 118.84436806 42.17617798 118.84336853 C36.21507661 118.83954493 30.25399949 118.82971596 24.29290771 118.81866455 C18.21350431 118.80844707 12.13409701 118.80387019 6.0546875 118.79882812 C-5.88021901 118.78809357 -17.81510749 118.77101902 -29.75 118.75 C-29.61955326 120.19277362 -29.4806308 121.63478259 -29.33813477 123.07641602 C-29.26168228 123.87950699 -29.1852298 124.68259796 -29.10646057 125.51002502 C-28.63579362 128.46766541 -27.49511016 130.32435953 -25.6875 132.6875 C-22.75 136.60647059 -22.75 136.60647059 -22.75 138.75 C-22.13125 139.059375 -21.5125 139.36875 -20.875 139.6875 C-19.5 140.375 -18.125 141.0625 -16.75 141.75 C-16.75 142.41 -16.75 143.07 -16.75 143.75 C-16.14671875 143.87117187 -15.5434375 143.99234375 -14.921875 144.1171875 C-14.12265625 144.28476563 -13.3234375 144.45234375 -12.5 144.625 C-11.31664062 144.86863281 -11.31664062 144.86863281 -10.109375 145.1171875 C-7.75 145.75 -7.75 145.75 -5.765625 146.77734375 C4.2195518 151.59577209 23.60644489 149.5321753 34 146.25 C34.73863281 145.97929687 35.47726562 145.70859375 36.23828125 145.4296875 C38.82555396 144.55554099 41.40433413 144.44822282 44.109375 144.1953125 C47.8768106 143.4115759 51.20937681 141.61248101 54.63671875 139.90625 C57.19439487 138.77460257 59.49669303 138.18656039 62.25 137.75 C63.12266212 142.98899228 63.38410177 148.00322853 63.34765625 153.30859375 C63.34553383 154.49232323 63.34553383 154.49232323 63.34336853 155.69996643 C63.33781555 158.19585115 63.32527208 160.69164285 63.3125 163.1875 C63.30747891 164.88997265 63.30291707 166.59244673 63.29882812 168.29492188 C63.28786158 172.44664988 63.27062991 176.59830922 63.25 180.75 C61.84215347 181.55483501 60.43142389 182.35462798 59.01953125 183.15234375 C58.23425049 183.59827881 57.44896973 184.04421387 56.63989258 184.50366211 C53.72111328 186.0258164 50.80381874 187.05096982 47.66015625 188 C45.98114207 188.52248091 44.32203686 189.11158077 42.68359375 189.75 C34.07347025 193.00723726 25.55165797 193.83138908 16.45019531 194.56640625 C14.5243946 194.72710334 12.60160907 194.92313515 10.6796875 195.125 C5.63650337 195.64092677 0.94277538 195.85797816 -4.078125 195.125 C-6.30026968 194.81312005 -8.50085751 194.57823558 -10.734375 194.375 C-19.01460656 193.58785324 -26.23166182 192.52732933 -33.75 188.75 C-35.36841797 187.96109375 -35.36841797 187.96109375 -37.01953125 187.15625 C-39.94358557 185.71294496 -42.85161015 184.24401539 -45.75 182.75 C-45.75 182.09 -45.75 181.43 -45.75 180.75 C-47.4 180.42 -49.05 180.09 -50.75 179.75 C-50.75 179.09 -50.75 178.43 -50.75 177.75 C-51.49636719 177.66621094 -52.24273438 177.58242187 -53.01171875 177.49609375 C-56.3239577 176.59361495 -57.39220417 175.42725729 -59.5625 172.8125 C-60.46935547 171.74708984 -60.46935547 171.74708984 -61.39453125 170.66015625 C-62.75 168.75 -62.75 168.75 -62.75 166.75 C-63.74 166.42 -64.73 166.09 -65.75 165.75 C-65.75 164.76 -65.75 163.77 -65.75 162.75 C-66.34683594 162.52699219 -66.94367187 162.30398437 -67.55859375 162.07421875 C-70.42905059 160.33966462 -71.27945701 158.52638312 -72.8125 155.5625 C-73.32683594 154.56863281 -73.84117187 153.57476562 -74.37109375 152.55078125 C-75.96174222 149.31991736 -77.43275064 146.10299837 -78.75 142.75 C-79.06275879 141.9780127 -79.37551758 141.20602539 -79.69775391 140.41064453 C-82.31026149 133.67416911 -83.70660837 127.29245902 -84.5 120.125 C-84.62141357 119.07884521 -84.74282715 118.03269043 -84.86791992 116.95483398 C-87.45908502 93.16389022 -85.71454094 68.37544844 -74.75 46.75 C-74.38261719 45.93402344 -74.01523437 45.11804688 -73.63671875 44.27734375 C-67.17523441 30.26635881 -56.87790639 18.72702645 -43.75 10.75 C-43.110625 10.31945312 -42.47125 9.88890625 -41.8125 9.4453125 C-29.74183999 1.85399898 -13.96906263 -0.62294468 0 0 Z M-16.75 47.75 C-17.74 48.08 -18.73 48.41 -19.75 48.75 C-26.92086799 54.80409347 -30.62941398 64.36353268 -31.5625 73.5 C-31.64485706 74.91565109 -31.71550028 76.33237506 -31.75 77.75 C-26.04989062 78.97024564 -20.46128075 78.87702021 -14.6640625 78.84765625 C-13.60714203 78.8462413 -12.55022156 78.84482635 -11.46127319 78.84336853 C-8.09915284 78.8377894 -4.73710009 78.82524069 -1.375 78.8125 C0.91015529 78.80748231 3.19531162 78.80291987 5.48046875 78.79882812 C11.0703354 78.78782679 16.66016287 78.77110944 22.25 78.75 C22.25757324 77.48905518 22.26514648 76.22811035 22.27294922 74.92895508 C22.27720917 74.21967361 22.28146912 73.51039215 22.28585815 72.77961731 C22.24133815 70.25972813 21.88627821 67.90343415 21.375 65.4375 C21.21257812 64.61636719 21.05015625 63.79523438 20.8828125 62.94921875 C20.29539714 60.48985795 20.29539714 60.48985795 18.25 57.75 C17.59 57.75 16.93 57.75 16.25 57.75 C16.04375 57.028125 15.8375 56.30625 15.625 55.5625 C13.25998711 50.72497364 9.51716391 48.44335384 4.9375 45.9375 C-2.94618499 43.39868619 -9.19180524 44.8208201 -16.75 47.75 Z " fill="#6671E4" transform="translate(694.75,68.25)"/>
<path d="M0 0 C1.11503906 0.00209473 2.23007813 0.00418945 3.37890625 0.00634766 C13.99113707 0.20292603 23.89897841 2.21651653 34.13696289 4.87011719 C37.59208412 5.72339686 41.07336322 6.39825263 44.57006836 7.05712891 C47.1096544 7.58829564 49.37927407 8.30865759 51.6875 9.5 C52.91830509 11.96161017 52.80793977 13.56496993 52.80102539 16.31689453 C52.80091209 17.81822433 52.80091209 17.81822433 52.80079651 19.34988403 C52.79563522 20.43325043 52.79047394 21.51661682 52.78515625 22.6328125 C52.7837413 23.73978485 52.78232635 24.8467572 52.78086853 25.98727417 C52.77525772 29.53320993 52.76270337 33.07908323 52.75 36.625 C52.74498639 39.02473867 52.74042325 41.42447833 52.73632812 43.82421875 C52.72528478 49.71616725 52.7085361 55.60807916 52.6875 61.5 C51.24845758 61.02261432 49.809612 60.54463524 48.37084961 60.06640625 C47.56957138 59.80029541 46.76829315 59.53418457 45.94273376 59.26000977 C43.35907755 58.38932222 40.80324143 57.45597183 38.25 56.5 C25.45587908 51.85081875 13.34330298 49.3478116 -0.3125 49.25 C-1.12581787 49.24073486 -1.93913574 49.23146973 -2.77709961 49.22192383 C-7.03512868 49.24450462 -10.47891075 49.41975777 -14.3125 51.5 C-16.47892106 54.53298949 -17.16477355 57.80683884 -17.3125 61.5 C-14.6661108 67.3942305 -10.092474 70.11186703 -4.3125 72.5 C-2.39205242 72.96939739 -0.4712701 73.43756674 1.45263672 73.89257812 C5.64080463 75.03089599 9.61423363 76.73159383 13.625 78.375 C14.46740234 78.71402344 15.30980469 79.05304688 16.17773438 79.40234375 C45.40811807 91.23851143 45.40811807 91.23851143 48.6875 98.5 C50.01142972 99.51241685 51.34349167 100.51439389 52.6875 101.5 C52.6875 102.16 52.6875 102.82 52.6875 103.5 C54.1725 103.995 54.1725 103.995 55.6875 104.5 C56.71484375 106.21484375 56.71484375 106.21484375 57.625 108.4375 C57.92277344 109.14777344 58.22054687 109.85804688 58.52734375 110.58984375 C58.91019531 111.55019531 59.29304687 112.51054687 59.6875 113.5 C60.02120605 114.17603271 60.35491211 114.85206543 60.69873047 115.54858398 C64.12214619 122.94525512 64.26903242 129.62701976 63.9375 137.6875 C63.8600354 139.61698486 63.8600354 139.61698486 63.78100586 141.58544922 C62.80477148 157.39944494 56.04273314 167.76273873 44.6875 178.5 C41.06141304 181.5 41.06141304 181.5 38.6875 181.5 C38.6875 182.16 38.6875 182.82 38.6875 183.5 C27.29936553 189.58302368 17.14896994 193.60145638 4.2734375 195.0625 C0.87927305 195.10280461 0.87927305 195.10280461 -0.3125 196.5 C-3.97279842 196.75502079 -7.64708639 196.59111763 -11.3125 196.5 C-13.16294922 196.45746094 -13.16294922 196.45746094 -15.05078125 196.4140625 C-30.63005213 195.86568435 -46.43866113 193.19700175 -61.3125 188.5 C-61.3125 187.84 -61.3125 187.18 -61.3125 186.5 C-62.3953125 186.3453125 -62.3953125 186.3453125 -63.5 186.1875 C-68.66858553 184.92406798 -68.66858553 184.92406798 -71.3125 182.5 C-72.05030249 178.76584656 -71.89155613 175.0621501 -71.80078125 171.26953125 C-71.79370651 170.16397385 -71.78663177 169.05841644 -71.77934265 167.9193573 C-71.75132049 164.38305419 -71.68856379 160.84832574 -71.625 157.3125 C-71.59992742 154.91734055 -71.57711245 152.52215632 -71.55664062 150.12695312 C-71.50146818 144.25076346 -71.41776308 138.3754942 -71.3125 132.5 C-69.9925 132.5 -68.6725 132.5 -67.3125 132.5 C-66.6525 133.16 -65.9925 133.82 -65.3125 134.5 C-63.48830349 135.2195752 -63.48830349 135.2195752 -61.375 135.8125 C-57.69334597 136.97077318 -54.2940131 138.39764142 -50.8125 140.0625 C-46.76608963 141.94259358 -43.03100301 143.22714356 -38.65234375 144.03515625 C-36.3125 144.5 -36.3125 144.5 -33.75390625 145.24609375 C-27.31324674 147.11308104 -21.10618144 147.89158553 -14.4375 148.25 C-13.62877441 148.29455322 -12.82004883 148.33910645 -11.98681641 148.38500977 C-7.60894284 148.56980488 -3.62876677 148.4159923 0.6875 147.5 C0.6875 146.84 0.6875 146.18 0.6875 145.5 C1.285625 145.438125 1.88375 145.37625 2.5 145.3125 C4.89407181 144.64158073 4.89407181 144.64158073 6.4375 142.25 C7.83879617 139.16714842 8.32084346 137.82505314 7.6875 134.5 C1.74107517 123.59822115 -10.01051033 119.96373554 -21.3125 116.5 C-22.56546875 116.26990234 -22.56546875 116.26990234 -23.84375 116.03515625 C-29.3002962 114.85232899 -34.30507687 111.90495728 -39.3125 109.5 C-40.27929688 109.04882812 -41.24609375 108.59765625 -42.2421875 108.1328125 C-46.64574856 106.02903407 -50.01935304 104.1883246 -53.3125 100.5 C-54.7975 100.005 -54.7975 100.005 -56.3125 99.5 C-56.9725 98.51 -57.6325 97.52 -58.3125 96.5 C-59.3025 96.17 -60.2925 95.84 -61.3125 95.5 C-62.80859375 93.24609375 -62.80859375 93.24609375 -64.3125 90.5 C-64.81910156 89.68660156 -65.32570313 88.87320313 -65.84765625 88.03515625 C-66.35167969 87.21917969 -66.85570313 86.40320313 -67.375 85.5625 C-67.88160156 84.74910156 -68.38820313 83.93570313 -68.91015625 83.09765625 C-74.91042325 71.98295554 -74.31709965 55.24714051 -71.1328125 43.24609375 C-66.90687675 30.37778401 -58.70496002 18.9926238 -46.56640625 12.62890625 C-45.82261719 12.25636719 -45.07882813 11.88382813 -44.3125 11.5 C-42.6728125 10.448125 -42.6728125 10.448125 -41 9.375 C-35.84133972 6.45660299 -29.99528417 5.04877952 -24.3125 3.5 C-22.99221802 3.11835693 -22.99221802 3.11835693 -21.64526367 2.72900391 C-14.34367353 0.72871531 -7.55989938 -0.04295397 0 0 Z " fill="#6671E4" transform="translate(74.3125,67.5)"/>
<path d="M0 0 C0 14.85 0 29.7 0 45 C12.46083695 44.96039654 12.46083695 44.96039654 24.92163086 44.90991211 C26.47770113 44.90699295 28.03377216 44.90444439 29.58984375 44.90234375 C30.40521606 44.89722778 31.22058838 44.89211182 32.06066895 44.88684082 C34.04080523 44.8865306 36.02084654 44.93761904 38 45 C39 46 39 46 39.12025452 47.86659241 C39.11803391 48.68155685 39.11581329 49.4965213 39.11352539 50.33618164 C39.11341209 51.71750023 39.11341209 51.71750023 39.11329651 53.12672424 C39.10813522 54.12775681 39.10297394 55.12878937 39.09765625 56.16015625 C39.0962413 57.17975937 39.09482635 58.19936249 39.09336853 59.24986267 C39.08775097 62.52077107 39.0751955 65.79161213 39.0625 69.0625 C39.05748726 71.27408756 39.05292396 73.48567618 39.04882812 75.69726562 C39.03777584 81.13153357 39.02102063 86.56576197 39 92 C35.76535917 93.61732041 32.25291549 92.99875197 28.7109375 92.87890625 C27.89251373 92.85529526 27.07408997 92.83168427 26.23086548 92.80735779 C23.6120694 92.73067056 20.99356529 92.64666817 18.375 92.5625 C16.60157688 92.50928437 14.82813942 92.45654393 13.0546875 92.40429688 C8.70293946 92.2750486 4.35143939 92.13923848 0 92 C-0.09285293 102.55323055 -0.16384256 113.10636323 -0.20724869 123.65991974 C-0.22808595 128.56086195 -0.25633285 133.4615238 -0.30175781 138.36230469 C-0.34535356 143.09558349 -0.36916613 147.82859334 -0.37950897 152.5620575 C-0.38687575 154.36411266 -0.40126133 156.16615381 -0.42292023 157.96809387 C-0.45213733 160.50053228 -0.45594846 163.03187216 -0.45410156 165.56445312 C-0.46848267 166.30245148 -0.48286377 167.04044983 -0.49768066 167.80081177 C-0.44952026 173.94020447 1.4062908 179.01939844 5.46697617 183.68579865 C7.51464488 185.44118492 9.36854817 185.6443984 12 186 C12 186.66 12 187.32 12 188 C14.04136395 188.05451714 16.08315856 188.09302485 18.125 188.125 C19.26195312 188.14820313 20.39890625 188.17140625 21.5703125 188.1953125 C25.1015008 187.99421977 27.671671 187.14331912 31 186 C33.64 185.67 36.28 185.34 39 185 C39 199.85 39 214.7 39 230 C33.51129236 232.35230328 30.57735245 233.29015514 25 234 C24.17242187 234.32355469 23.34484375 234.64710938 22.4921875 234.98046875 C17.57719811 236.41538176 12.78434835 236.54756272 7.6875 236.75 C6.69298828 236.80542969 5.69847656 236.86085938 4.67382812 236.91796875 C-9.53597989 237.5337582 -24.63775189 233.12785105 -35.33984375 223.53125 C-36.16162109 222.77328125 -36.16162109 222.77328125 -37 222 C-37.86625 221.21625 -38.7325 220.4325 -39.625 219.625 C-42.59857924 216.33841242 -44.78412062 212.82321876 -47 209 C-47.96169853 207.4449601 -47.96169853 207.4449601 -48.94282532 205.85850525 C-56.50889201 192.53462514 -55.55424334 175.68867447 -55.42578125 160.90234375 C-55.42116856 158.68126198 -55.41825546 156.46017612 -55.41691589 154.23908997 C-55.40814379 148.34967728 -55.3742233 142.46067129 -55.33456421 136.57139587 C-55.30503634 131.70826261 -55.29062059 126.84513398 -55.2764225 121.9819355 C-55.1673531 84.98471291 -54.80661587 47.98891407 -54 11 C-43.78151498 7.58197017 -33.90612015 4.84184615 -23.1953125 3.5 C-19.58666263 2.93532129 -16.37827007 1.91929685 -12.9609375 0.66796875 C-8.30123734 -0.91929963 -4.74573147 -1.18643287 0 0 Z " fill="#6671E4" transform="translate(201,27)"/>
<path d="M0 0 C1 1 1 1 1.12025452 2.98048401 C1.11803391 3.84874313 1.11581329 4.71700226 1.11352539 5.61157227 C1.11341209 7.08298424 1.11341209 7.08298424 1.11329651 8.5841217 C1.10813522 9.6507756 1.10297394 10.7174295 1.09765625 11.81640625 C1.0962413 12.9025975 1.09482635 13.98878876 1.09336853 15.1078949 C1.08775048 18.59279075 1.07519492 22.07762342 1.0625 25.5625 C1.05748733 27.91861887 1.05292402 30.27473874 1.04882812 32.63085938 C1.03777519 38.42059464 1.02101951 44.21029281 1 50 C0.35039307 49.97905273 -0.29921387 49.95810547 -0.96850586 49.93652344 C-3.95800833 49.85254417 -6.94726158 49.801084 -9.9375 49.75 C-10.95908203 49.71648437 -11.98066406 49.68296875 -13.03320312 49.6484375 C-23.17860293 49.51878383 -29.49842492 52.41325115 -37 59 C-37.66 59 -38.32 59 -39 59 C-38.99907821 59.65875594 -38.99815641 60.31751188 -38.99720669 60.99623013 C-38.97515164 77.00267491 -38.95858854 93.00911444 -38.94818783 109.01557064 C-38.94302483 116.75607282 -38.93598207 124.49656487 -38.92456055 132.23706055 C-38.91461381 138.98127151 -38.9081466 145.72547515 -38.90591151 152.46969324 C-38.90460438 156.04286866 -38.90151842 159.6160231 -38.89426994 163.18919182 C-38.88625628 167.17162351 -38.88600886 171.15403441 -38.88647461 175.13647461 C-38.88287933 176.32977386 -38.87928406 177.52307312 -38.87557983 178.75253296 C-38.8769545 179.83091934 -38.87832916 180.90930573 -38.87974548 182.02037048 C-38.87882369 182.96336471 -38.8779019 183.90635893 -38.87695217 184.87792873 C-39 187 -39 187 -40 188 C-41.65191396 188.09868509 -43.30803217 188.12798837 -44.96289062 188.12939453 C-46.02068726 188.13254669 -47.07848389 188.13569885 -48.16833496 188.13894653 C-49.31934692 188.1369223 -50.47035889 188.13489807 -51.65625 188.1328125 C-53.41515564 188.13424759 -53.41515564 188.13424759 -55.20959473 188.13571167 C-57.69458062 188.1363937 -60.17956829 188.13453784 -62.66455078 188.13037109 C-66.48343887 188.12502319 -70.30220935 188.13031536 -74.12109375 188.13671875 C-76.52864609 188.13605797 -78.93619837 188.13477682 -81.34375 188.1328125 C-83.07026794 188.13584885 -83.07026794 188.13584885 -84.83166504 188.13894653 C-85.88946167 188.13579437 -86.9472583 188.13264221 -88.03710938 188.12939453 C-89.44156311 188.12820114 -89.44156311 188.12820114 -90.87438965 188.12698364 C-93 188 -93 188 -94 187 C-94.11004251 184.59712319 -94.15495637 182.22236544 -94.15821838 179.81846619 C-94.16315636 179.05807102 -94.16809434 178.29767586 -94.17318195 177.51423842 C-94.18863294 174.94691322 -94.19693801 172.37961317 -94.20532227 169.81225586 C-94.21489483 167.97961706 -94.22490453 166.14698051 -94.23532104 164.31434631 C-94.2624436 159.32284344 -94.28341323 154.33133103 -94.30332303 149.33979487 C-94.32513741 144.1293899 -94.35254827 138.91901454 -94.37937927 133.70863342 C-94.42936786 123.83471121 -94.47428373 113.96077262 -94.51740164 104.08681828 C-94.56672143 92.84877897 -94.621659 81.61076936 -94.67708123 70.37275875 C-94.79099589 47.24853352 -94.89781417 24.12427982 -95 1 C-92.62609164 -0.18695418 -91.19755049 -0.12075833 -88.55029297 -0.11352539 C-87.16908768 -0.11341209 -87.16908768 -0.11341209 -85.75997925 -0.11329651 C-84.26617233 -0.10555458 -84.26617233 -0.10555458 -82.7421875 -0.09765625 C-81.21490524 -0.09553383 -81.21490524 -0.09553383 -79.6567688 -0.09336853 C-76.39614965 -0.087759 -73.13559849 -0.07520488 -69.875 -0.0625 C-67.66796974 -0.05748623 -65.46093841 -0.05292311 -63.25390625 -0.04882812 C-57.83591419 -0.03778648 -52.41796195 -0.02103905 -47 0 C-45.61917037 4.6757361 -44.59311128 9.15625788 -44 14 C-43.278125 13.113125 -42.55625 12.22625 -41.8125 11.3125 C-41.34457031 10.76335937 -40.87664062 10.21421875 -40.39453125 9.6484375 C-39.23009225 8.2719858 -38.10928702 6.85877399 -37 5.4375 C-25.80904676 -3.65514951 -13.18023539 -3.90955587 0 0 Z " fill="#6671E4" transform="translate(350,72)"/>
<path d="M0 0 C1.01129974 -0.00315216 2.02259949 -0.00630432 3.06454468 -0.009552 C4.71603012 -0.00651566 4.71603012 -0.00651566 6.40087891 -0.00341797 C8.08608139 -0.00485306 8.08608139 -0.00485306 9.80532837 -0.00631714 C12.18776505 -0.00699926 14.57020358 -0.00514278 16.95263672 -0.00097656 C20.60469743 0.00436129 24.2566346 -0.00091537 27.90869141 -0.00732422 C30.21858751 -0.00666325 32.52848354 -0.00538169 34.83837891 -0.00341797 C36.48379166 -0.00645432 36.48379166 -0.00645432 38.16244507 -0.009552 C39.68885117 -0.00482376 39.68885117 -0.00482376 41.24609375 0 C42.14242523 0.00079559 43.03875671 0.00159119 43.96224976 0.00241089 C46.25244141 0.12939453 46.25244141 0.12939453 49.25244141 1.12939453 C50.73393101 4.09237374 50.38963878 7.10029715 50.37942505 10.348526 C50.38098504 11.10090292 50.38254503 11.85327984 50.38415229 12.62845606 C50.3881576 15.16272404 50.38497447 17.69693268 50.38183594 20.23120117 C50.38319017 22.04265885 50.38497023 23.85411625 50.387146 25.66557312 C50.39171733 30.59512352 50.38993208 35.52465307 50.38676691 40.45420384 C50.38424216 45.60272482 50.38658113 50.75124397 50.38815308 55.89976501 C50.38997427 64.5460543 50.3875696 73.19233505 50.3828125 81.83862305 C50.37736826 91.84974 50.37913392 101.8608366 50.38463891 111.87195307 C50.38916941 120.45283148 50.38982094 129.03370374 50.38720024 137.61458296 C50.38563734 142.74597377 50.38544408 147.87735499 50.38873672 153.00874519 C50.39161459 157.83084255 50.38964131 162.65291352 50.38384247 167.47500801 C50.38251449 169.25001481 50.38290962 171.02502381 50.38510513 172.80002975 C50.38781512 175.2124659 50.38443741 177.62481611 50.37942505 180.0372467 C50.38165577 180.74890411 50.38388649 181.46056152 50.38618481 182.1937843 C50.36659138 187.01524455 50.36659138 187.01524455 49.25244141 188.12939453 C47.60146573 188.25751036 45.94516463 188.31776642 44.28955078 188.35058594 C43.23175415 188.37375885 42.17395752 188.39693176 41.08410645 188.42080688 C39.93309448 188.44065643 38.78208252 188.46050598 37.59619141 188.48095703 C35.83728577 188.51568619 35.83728577 188.51568619 34.04284668 188.55111694 C31.55790666 188.59883748 29.07291767 188.64406143 26.58789062 188.68701172 C22.76886142 188.75410606 18.95015101 188.83183523 15.13134766 188.91064453 C12.72380746 188.95555714 10.31625558 188.99984893 7.90869141 189.04345703 C6.75767944 189.06735504 5.60666748 189.09125305 4.42077637 189.11587524 C2.83408142 189.14117813 2.83408142 189.14117813 1.21533203 189.16699219 C-0.1891217 189.19244614 -0.1891217 189.19244614 -1.62194824 189.21841431 C-3.74755859 189.12939453 -3.74755859 189.12939453 -4.74755859 188.12939453 C-6.13815567 179.40476998 -5.88841053 170.59260073 -5.87695312 161.78369141 C-5.87830971 160.03031376 -5.88009109 158.2769364 -5.88226318 156.52355957 C-5.8868042 151.78449994 -5.88506241 147.04546219 -5.8818841 142.30640221 C-5.87934647 137.34477048 -5.88170165 132.38314059 -5.88327026 127.42150879 C-5.8850865 119.09952458 -5.88269855 110.77754926 -5.87792969 102.45556641 C-5.87247381 92.82318396 -5.87426151 83.19082263 -5.87975609 73.55844069 C-5.88428574 65.28739729 -5.88493894 57.01636026 -5.88231742 48.74531603 C-5.88075567 43.80517766 -5.88055842 38.86504924 -5.88385391 33.9249115 C-5.88673094 29.2890371 -5.88476009 24.65319014 -5.87895966 20.01731873 C-5.87763176 18.31164597 -5.87802667 16.60597093 -5.88022232 14.90029907 C-5.88293232 12.58238606 -5.87955475 10.2645625 -5.87454224 7.94665527 C-5.87416521 6.64663322 -5.87378819 5.34661118 -5.87339973 4.00719452 C-5.66984161 -0.64787741 -4.21125293 0.0037446 0 0 Z " fill="#6671E4" transform="translate(367.74755859375,71.87060546875)"/>
<path d="M0 0 C0.86553429 7.91500545 1.15392462 15.72840979 1.125 23.6875 C1.13080078 25.30108398 1.13080078 25.30108398 1.13671875 26.94726562 C1.12204649 38.92716878 1.12204649 38.92716878 0 44 C-2.67443836 46.21561824 -5.93038036 46.49323234 -9.3125 47.0625 C-10.21613281 47.21847656 -11.11976563 47.37445313 -12.05078125 47.53515625 C-14.11938834 47.86120161 -16.19224239 48.1608779 -18.26757812 48.44091797 C-21.77895767 48.96688992 -25.20237582 49.64234231 -28.66796875 50.41015625 C-29.89064453 50.67763672 -31.11332031 50.94511719 -32.37304688 51.22070312 C-34.92801248 51.78454858 -37.48269799 52.34966465 -40.03710938 52.91601562 C-41.25591797 53.18220703 -42.47472656 53.44839844 -43.73046875 53.72265625 C-45.39178833 54.09015991 -45.39178833 54.09015991 -47.08666992 54.46508789 C-50 55 -50 55 -54 55 C-54.8886833 49.68942541 -55.13355881 44.60114055 -55.09765625 39.22265625 C-55.0962413 38.41130722 -55.09482635 37.59995819 -55.09336853 36.76402283 C-55.08781357 34.19680953 -55.07526967 31.62968652 -55.0625 29.0625 C-55.05747917 27.31185023 -55.05291729 25.56119907 -55.04882812 23.81054688 C-55.03785893 19.5403303 -55.02062582 15.27018041 -55 11 C-45.14102315 8.36157531 -35.17606359 6.34289274 -25.16967773 4.35571289 C-22.41105866 3.80724292 -19.65374463 3.2525218 -16.89648438 2.69726562 C-15.13809483 2.34598357 -13.37963386 1.9950588 -11.62109375 1.64453125 C-10.79927109 1.47895218 -9.97744843 1.31337311 -9.13072205 1.14277649 C-6.03954568 0.53221486 -3.1593225 0 0 0 Z " fill="#6671E4" transform="translate(417,2)"/>
<path d="M0 0 C0.85078125 0.04833984 1.7015625 0.09667969 2.578125 0.14648438 C3.46757812 0.20255859 4.35703125 0.25863281 5.2734375 0.31640625 C6.170625 0.36861328 7.0678125 0.42082031 7.9921875 0.47460938 C10.21127762 0.60444975 12.42993621 0.73941964 14.6484375 0.87890625 C13.6484375 2.87890625 13.6484375 2.87890625 11.6484375 3.62890625 C7.99948781 3.93298539 5.13443353 3.14971857 1.63671875 2.15625 C0.98058594 2.06472656 0.32445312 1.97320312 -0.3515625 1.87890625 C-2.77288058 4.30022433 -2.58887869 5.54495593 -2.60972512 8.84822953 C-2.60389943 9.54277454 -2.59807375 10.23731955 -2.59207153 10.95291138 C-2.59378038 11.68965965 -2.59548923 12.42640793 -2.59724987 13.18548191 C-2.6005576 15.66688347 -2.58952016 18.14801767 -2.57861328 20.62939453 C-2.57804944 22.40306593 -2.57836519 24.1767378 -2.57949829 25.95040894 C-2.58007388 30.77662345 -2.56828635 35.60273925 -2.55435038 40.42893076 C-2.54187723 45.46847443 -2.54067522 50.50802018 -2.53829956 55.5475769 C-2.53207472 65.09567699 -2.51565036 74.64373147 -2.49560058 84.19181144 C-2.47327277 95.05984297 -2.46225601 105.92787664 -2.45220971 116.79592538 C-2.43128498 139.15694432 -2.39608955 161.51792274 -2.3515625 183.87890625 C0.46502034 184.61680176 2.96337951 185.01778501 5.87866211 185.06835938 C6.70309311 185.0850769 7.52752411 185.10179443 8.37693787 185.11901855 C9.25930618 185.13259399 10.1416745 185.14616943 11.05078125 185.16015625 C12.42285484 185.18777039 12.42285484 185.18777039 13.82264709 185.21594238 C16.74367951 185.27460497 19.66476977 185.32745099 22.5859375 185.37890625 C26.42850474 185.4467144 30.27089355 185.52040576 34.11328125 185.59765625 C34.99362534 185.61123169 35.87396942 185.62480713 36.7809906 185.63879395 C40.85325005 185.72105531 44.67539761 185.87227376 48.6484375 186.87890625 C48.6484375 187.20890625 48.6484375 187.53890625 48.6484375 187.87890625 C41.11874098 187.90417273 33.5890553 187.92173766 26.05932617 187.93383789 C23.49551993 187.93887995 20.93171659 187.94571339 18.36791992 187.9543457 C14.69188729 187.96641689 11.01589252 187.97213567 7.33984375 187.9765625 C6.18569473 187.98172379 5.03154572 187.98688507 3.84242249 187.99220276 C2.250886 187.99231606 2.250886 187.99231606 0.62719727 187.99243164 C-0.31212143 187.99465225 -1.25144012 187.99687286 -2.21922302 187.99916077 C-4.3515625 187.87890625 -4.3515625 187.87890625 -5.3515625 186.87890625 C-5.46160501 184.47602944 -5.50651887 182.10127169 -5.50978088 179.69737244 C-5.51471886 178.93697727 -5.51965684 178.17658211 -5.52474445 177.39314467 C-5.54019544 174.82581947 -5.54850051 172.25851942 -5.55688477 169.69116211 C-5.56645733 167.85852331 -5.57646703 166.02588676 -5.58688354 164.19325256 C-5.6140061 159.20174969 -5.63497573 154.21023728 -5.65488553 149.21870112 C-5.67669991 144.00829615 -5.70411077 138.79792079 -5.73094177 133.58753967 C-5.78093036 123.71361746 -5.82584623 113.83967887 -5.86896414 103.96572453 C-5.91828393 92.72768522 -5.9732215 81.48967561 -6.02864373 70.251665 C-6.14255839 47.12743977 -6.24937667 24.00318607 -6.3515625 0.87890625 C-3.94721244 -0.32326878 -2.66774881 -0.16006493 0 0 Z " fill="#5965D9" transform="translate(261.3515625,72.12109375)"/>
<path d="M0 0 C0.66 0.33 1.32 0.66 2 1 C2 41.59 2 82.18 2 124 C1.01 123.67 0.02 123.34 -1 123 C-1.02333829 107.25810329 -1.04098376 91.51621123 -1.05181217 75.77430153 C-1.05697315 68.46541389 -1.06401208 61.156537 -1.07543945 53.84765625 C-1.08539234 47.47882562 -1.09185487 41.11000276 -1.09408849 34.74116457 C-1.09539457 31.36748885 -1.09847394 27.99383538 -1.10573006 24.62016678 C-1.11294496 20.85825509 -1.11399075 17.09639011 -1.11352539 13.33447266 C-1.11712067 12.21022385 -1.12071594 11.08597504 -1.12442017 9.92765808 C-1.1230455 8.90679611 -1.12167084 7.88593414 -1.12025452 6.83413696 C-1.12117631 5.94368494 -1.1220981 5.05323292 -1.12304783 4.1357975 C-1 2 -1 2 0 0 Z " fill="#5D68CD" transform="translate(416,81)"/>
<path d="M0 0 C5.90884373 0.03708479 11.59694104 2.42487011 17.125 4.3125 C17.125 4.6425 17.125 4.9725 17.125 5.3125 C15.45817469 5.1684912 13.79154815 5.02218156 12.125 4.875 C11.11179687 4.78605469 10.09859375 4.69710937 9.0546875 4.60546875 C6.77727078 4.37772708 4.50957327 4.0519473 2.25 3.6875 C-3.46933624 2.94762693 -9.1753736 3.66353264 -14.875 4.3125 C-15.6484375 4.38984375 -16.421875 4.4671875 -17.21875 4.546875 C-23.87920658 5.5906779 -29.26081144 9.19124561 -34.93359375 12.6328125 C-37.875 14.3125 -37.875 14.3125 -39.875 14.3125 C-40.205 15.3025 -40.535 16.2925 -40.875 17.3125 C-43.85959129 19.26792188 -45.13914791 19.3125 -48.875 19.3125 C-49.37 17.8275 -49.37 17.8275 -49.875 16.3125 C-49.215 15.3225 -48.555 14.3325 -47.875 13.3125 C-47.70800768 10.18728167 -47.70800768 10.18728167 -47.875 7.3125 C-50.61062834 6.40062389 -52.33645475 6.16519741 -55.1628418 6.10717773 C-56.02350754 6.08723251 -56.88417328 6.06728729 -57.7709198 6.04673767 C-59.15855278 6.02166893 -59.15855278 6.02166893 -60.57421875 5.99609375 C-61.52440384 5.97531265 -62.47458893 5.95453156 -63.4535675 5.93312073 C-66.48980456 5.86771948 -69.52612831 5.80878396 -72.5625 5.75 C-74.62045169 5.70680583 -76.67839459 5.66319124 -78.73632812 5.61914062 C-83.78246316 5.51204769 -88.82868543 5.41075354 -93.875 5.3125 C-93.84470703 6.01705322 -93.81441406 6.72160645 -93.78320312 7.44750977 C-92.85710431 29.7433388 -92.76093235 52.00086818 -92.875 74.3125 C-93.535 74.3125 -94.195 74.3125 -94.875 74.3125 C-94.875 51.2125 -94.875 28.1125 -94.875 4.3125 C-79.035 4.3125 -63.195 4.3125 -46.875 4.3125 C-45.95659233 7.98613066 -45.37952219 11.56462088 -44.875 15.3125 C-43.885 15.3125 -42.895 15.3125 -41.875 15.3125 C-41.45347656 14.72597656 -41.03195312 14.13945313 -40.59765625 13.53515625 C-34.86244318 6.13530084 -21.10019011 2.19680971 -12.09765625 0.91796875 C-8.0716737 0.50377301 -4.03388065 0.32531296 0 0 Z " fill="#5E66CA" transform="translate(530.875,67.6875)"/>
<path d="M0 0 C-0.33 0.99 -0.66 1.98 -1 3 C-2.32 3 -3.64 3 -5 3 C-5.33 3.66 -5.66 4.32 -6 5 C-6 4.34 -6 3.68 -6 3 C-8.31 3.66 -10.62 4.32 -13 5 C-13.33 43.94 -13.66 82.88 -14 123 C-14.33 122.34 -14.66 121.68 -15 121 C-15.66 120.67 -16.32 120.34 -17 120 C-17.1256525 91.09799124 -16.97122915 62.21030935 -16.5 33.3125 C-16.48804218 32.57889881 -16.47608437 31.84529762 -16.46376419 31.08946609 C-16.31595579 22.05952547 -16.16135946 13.02970925 -16 4 C-4.09557702 0 -4.09557702 0 0 0 Z " fill="#6269C4" transform="translate(163,34)"/>
<path d="M0 0 C0.33 0 0.66 0 1 0 C2.10347539 99.25424037 2.10347539 99.25424037 2.12338257 139.84242249 C2.12499699 141.99598649 2.12854643 144.14953984 2.13256836 146.30310059 C2.13939274 150.24374598 2.13705631 154.18434992 2.1328125 158.125 C2.13578842 159.82405487 2.13578842 159.82405487 2.13882446 161.55743408 C2.12402811 166.48102733 2.0533409 171.1632092 1 176 C1.96679688 175.72285156 2.93359375 175.44570313 3.9296875 175.16015625 C10.60832175 173.28721622 17.01998065 171.63485135 23.96875 171.1484375 C26.36453433 170.97336095 28.66214822 170.54549875 31 170 C31.33 170.66 31.66 171.32 32 172 C27.33507638 173.00826879 22.66804403 174.00628346 18 175 C17.01644531 175.21269531 16.03289062 175.42539062 15.01953125 175.64453125 C14.16746094 175.82371094 13.31539063 176.00289062 12.4375 176.1875 C11.69371094 176.34605469 10.94992187 176.50460937 10.18359375 176.66796875 C7.76165498 177.03624209 5.4461286 177.05588695 3 177 C3 177.66 3 178.32 3 179 C2.01 178.67 1.02 178.34 0 178 C-0.78634354 173.16671992 -1.11465635 168.56080979 -1.08229065 163.66639709 C-1.07906152 162.96212867 -1.07583239 162.25786024 -1.07250541 161.53225034 C-1.06051657 159.19079483 -1.04112664 156.84946158 -1.02172852 154.50805664 C-1.01157656 152.82231912 -1.00188389 151.13657879 -0.99261475 149.45083618 C-0.96622553 144.88730766 -0.93342761 140.32384523 -0.89946485 135.76036763 C-0.86503064 130.98646285 -0.83651006 126.2125228 -0.80735779 121.43858337 C-0.75129245 112.40417251 -0.68992138 103.36980582 -0.62663645 94.33544296 C-0.55483071 84.04771505 -0.48895144 73.75995185 -0.42356598 63.47218144 C-0.28896415 42.31474178 -0.14693281 21.15735739 0 0 Z " fill="#5B64C9" transform="translate(436,143)"/>
<path d="M0 0 C0 14.85 0 29.7 0 45 C-5.48870764 47.35230328 -8.42264755 48.29015514 -14 49 C-14.82757813 49.32355469 -15.65515625 49.64710938 -16.5078125 49.98046875 C-21.42280189 51.41538176 -26.21565165 51.54756272 -31.3125 51.75 C-32.30701172 51.80542969 -33.30152344 51.86085938 -34.32617188 51.91796875 C-47.47052998 52.48758637 -60.2399398 48.5326696 -71.375 41.5 C-71.91125 41.005 -72.4475 40.51 -73 40 C-73 39.01 -73 38.02 -73 37 C-72.34 37 -71.68 37 -71 37 C-70.401875 37.61875 -69.80375 38.2375 -69.1875 38.875 C-66.87494294 41.121484 -65.02800981 41.9906634 -62 43 C-62 43.66 -62 44.32 -62 45 C-61.13375 45.12375 -60.2675 45.2475 -59.375 45.375 C-56 46 -56 46 -53.3125 47 C-47.80056247 48.66398114 -41.53773026 49.84591009 -36 48 C-33.7504544 47.954783 -31.49966851 47.96137908 -29.25 48 C-20.75076568 48.15563118 -20.75076568 48.15563118 -12.625 46 C-10 45 -10 45 -1 44 C-1 30.14 -1 16.28 -1 2 C-4.465 3.485 -4.465 3.485 -8 5 C-10.45947266 5.38818359 -10.45947266 5.38818359 -12.6640625 5.3984375 C-13.47617188 5.40230469 -14.28828125 5.40617188 -15.125 5.41015625 C-15.95 5.39855469 -16.775 5.38695312 -17.625 5.375 C-18.45773438 5.38660156 -19.29046875 5.39820313 -20.1484375 5.41015625 C-24.9006812 5.38745445 -28.14625149 5.09872839 -32 2 C-32 1.67 -32 1.34 -32 1 C-30.35 1 -28.7 1 -27 1 C-27 1.66 -27 2.32 -27 3 C-24.95863605 3.05451714 -22.91684144 3.09302485 -20.875 3.125 C-19.73804688 3.14820313 -18.60109375 3.17140625 -17.4296875 3.1953125 C-13.91992111 2.9954397 -11.28279257 2.20536473 -8 1 C-1.9 0 -1.9 0 0 0 Z " fill="#6067C9" transform="translate(240,212)"/>
<path d="M0 0 C2.57466212 3.78626782 1.7384239 6.65150368 1 11 C1.33 11.33 1.66 11.66 2 12 C2.387285 15.86173584 2.4711763 19.7477378 2.625 23.625 C2.6765625 24.70652344 2.728125 25.78804687 2.78125 26.90234375 C2.96028363 31.21494789 3.11505005 35.24800616 2.4609375 39.5234375 C2.02762828 42.79161722 2.14125227 45.35222546 2.4609375 48.61328125 C3.09836961 55.18539073 2.93737619 61.60026715 2.625 68.1875 C2.55925781 69.88229492 2.55925781 69.88229492 2.4921875 71.61132812 C2.13438582 79.86561418 2.13438582 79.86561418 1 81 C1.15167174 84.74629204 1.40470145 88.47259388 1.68359375 92.2109375 C1.95913344 96.33731239 2.116474 99.96099114 1 104 C0.67 104 0.34 104 0 104 C-1.20416894 93.24538949 -1.14607375 82.52290617 -1.1328125 71.71875 C-1.13348731 69.7725015 -1.13445882 67.82625309 -1.13571167 65.88000488 C-1.13717748 61.82559395 -1.13506835 57.77120521 -1.13037109 53.71679688 C-1.12464385 48.52054859 -1.1279787 43.32435162 -1.13394356 38.12810516 C-1.13755343 34.12015392 -1.13640914 30.11221491 -1.13381577 26.10426331 C-1.13314926 24.18730157 -1.13396528 22.27033873 -1.13629532 20.3533783 C-1.13883212 17.68282105 -1.13496806 15.01234785 -1.12939453 12.34179688 C-1.13141876 11.55216553 -1.13344299 10.76253418 -1.13552856 9.94897461 C-1.12202549 6.45997179 -0.93519457 3.35672872 0 0 Z " fill="#5B66D6" transform="translate(363,109)"/>
<path d="M0 0 C0.85078125 0.04833984 1.7015625 0.09667969 2.578125 0.14648438 C3.46757812 0.20255859 4.35703125 0.25863281 5.2734375 0.31640625 C6.170625 0.36861328 7.0678125 0.42082031 7.9921875 0.47460938 C10.21127762 0.60444975 12.42993621 0.73941964 14.6484375 0.87890625 C13.6484375 2.87890625 13.6484375 2.87890625 11.6484375 3.62890625 C8.04159201 3.92947671 5.20189991 3.20067073 1.734375 2.25390625 C-0.53518999 1.67395034 -0.53518999 1.67395034 -3.3515625 2.87890625 C-3.6815625 63.59890625 -4.0115625 124.31890625 -4.3515625 186.87890625 C-4.6815625 186.87890625 -5.0115625 186.87890625 -5.3515625 186.87890625 C-5.6815625 125.49890625 -6.0115625 64.11890625 -6.3515625 0.87890625 C-3.94721244 -0.32326878 -2.66774881 -0.16006493 0 0 Z " fill="#5962BD" transform="translate(261.3515625,72.12109375)"/>
<path d="M0 0 C1.97343939 3.30370725 2.24426845 5.77240515 2.22705078 9.59472656 C2.22689972 10.71558655 2.22674866 11.83644653 2.22659302 12.99127197 C2.21627045 14.19555847 2.20594788 15.39984497 2.1953125 16.640625 C2.1924826 17.87794373 2.18965271 19.11526245 2.18673706 20.39007568 C2.177442 23.67151541 2.15948705 26.95275754 2.1373291 30.23413086 C2.11683048 33.58575622 2.10789724 36.93739007 2.09765625 40.2890625 C2.0756003 46.85945223 2.04212582 53.42970996 2 60 C11.53523602 64.79864372 21.12398548 68.43195176 32 67 C35.1692469 65.94689601 38.05746852 64.56858682 41 63 C42.32 62.34 43.64 61.68 45 61 C43.02 63.64 41.04 66.28 39 69 C38.01 68.505 38.01 68.505 37 68 C36.236875 68.495 35.47375 68.99 34.6875 69.5 C29.13631336 71.75810982 23.84679484 70.87217382 18 70 C17.34 69.67 16.68 69.34 16 69 C16 68.34 16 67.68 16 67 C15.46375 67.226875 14.9275 67.45375 14.375 67.6875 C10.82335592 68.15482159 9.03747549 66.82248529 6 65 C4.95763184 64.41710205 3.91526367 63.8342041 2.84130859 63.23364258 C0.5629373 61.28498329 0.04102495 60.21672227 -0.52410889 57.23129272 C-0.69646526 53.6021294 -0.67336303 50.01900062 -0.5859375 46.38671875 C-0.5747375 45.0486695 -0.5662011 43.71059553 -0.56021118 42.37251282 C-0.53737444 38.86196156 -0.47850126 35.35291568 -0.4119873 31.84295654 C-0.35045009 28.25683963 -0.32317212 24.67047784 -0.29296875 21.08398438 C-0.22874887 14.05537377 -0.12643516 7.02775928 0 0 Z " fill="#5E64BF" transform="translate(489,147)"/>
<path d="M0 0 C1.66674321 2.91824244 2.2432008 4.97594379 2.1953125 8.328125 C2.18886719 9.12734375 2.18242187 9.9265625 2.17578125 10.75 C2.15902344 11.575 2.14226562 12.4 2.125 13.25 C2.11597656 14.09046875 2.10695313 14.9309375 2.09765625 15.796875 C2.07415817 17.86470604 2.03828908 19.93238995 2 22 C4.40655995 23.20327997 5.91443786 23.12685623 8.6015625 23.12939453 C10.03314697 23.13412277 10.03314697 23.13412277 11.49365234 23.13894653 C12.52699707 23.1369223 13.5603418 23.13489807 14.625 23.1328125 C15.68283691 23.13376923 16.74067383 23.13472595 17.83056641 23.13571167 C20.06998758 23.13639301 22.30941073 23.13454193 24.54882812 23.13037109 C27.98572201 23.12502222 31.4224852 23.13031767 34.859375 23.13671875 C37.03125029 23.13605796 39.2031255 23.13477678 41.375 23.1328125 C42.40834473 23.13483673 43.44168945 23.13686096 44.50634766 23.13894653 C45.4607373 23.13579437 46.41512695 23.13264221 47.3984375 23.12939453 C48.24067871 23.12859894 49.08291992 23.12780334 49.95068359 23.12698364 C52.06588463 23.12999161 52.06588463 23.12999161 54 22 C54.495 23.485 54.495 23.485 55 25 C53.33658775 26.66341225 51.32561921 26.17582588 49.03710938 26.22119141 C47.97931274 26.24436432 46.92151611 26.26753723 45.83166504 26.29141235 C44.10514709 26.32118668 44.10514709 26.32118668 42.34375 26.3515625 C40.58484436 26.38629166 40.58484436 26.38629166 38.79040527 26.42172241 C36.30546526 26.46944295 33.82047626 26.51466689 31.33544922 26.55761719 C27.51642001 26.62471153 23.6977096 26.7024407 19.87890625 26.78125 C17.47136605 26.82616261 15.06381418 26.8704544 12.65625 26.9140625 C11.50523804 26.93796051 10.35422607 26.96185852 9.16833496 26.98648071 C7.58164001 27.0117836 7.58164001 27.0117836 5.96289062 27.03759766 C5.02658813 27.05456696 4.09028564 27.07153625 3.12561035 27.08901978 C1 27 1 27 0 26 C-1.26340899 17.4368946 -1.95312219 8.49453144 0 0 Z " fill="#5865E0" transform="translate(363,234)"/>
<path d="M0 0 C0.99 0 1.98 0 3 0 C3.86553429 7.91500545 4.15392462 15.72840979 4.125 23.6875 C4.13080078 25.30108398 4.13080078 25.30108398 4.13671875 26.94726562 C4.12204649 38.92716878 4.12204649 38.92716878 3 44 C1.27734375 45.42578125 1.27734375 45.42578125 -1 46 C-1.86496094 46.22042969 -2.72992188 46.44085938 -3.62109375 46.66796875 C-4.55050781 46.83941406 -5.47992188 47.01085938 -6.4375 47.1875 C-7.36433594 47.36667969 -8.29117187 47.54585937 -9.24609375 47.73046875 C-12.08629724 48.00844611 -14.24917005 47.70393289 -17 47 C-17 46.67 -17 46.34 -17 46 C-12.8803623 44.70756464 -9.33168317 43.73747375 -5 44 C-4.505 41.03 -4.505 41.03 -4 38 C-3.67 38.66 -3.34 39.32 -3 40 C-2.01 40.33 -1.02 40.66 0 41 C0 27.47 0 13.94 0 0 Z " fill="#6168CA" transform="translate(414,2)"/>
<path d="M0 0 C-0.00523682 0.68626465 -0.01047363 1.3725293 -0.01586914 2.07958984 C-0.03660956 5.17805064 -0.04965076 8.27649686 -0.0625 11.375 C-0.07087891 12.45523438 -0.07925781 13.53546875 -0.08789062 14.6484375 C-0.09272461 16.1953125 -0.09272461 16.1953125 -0.09765625 17.7734375 C-0.10551147 19.20308838 -0.10551147 19.20308838 -0.11352539 20.66162109 C-0.15642599 23.02324406 -0.15642599 23.02324406 1 25 C0.99241554 27.25609792 0.91650633 29.51209661 0.80859375 31.765625 C0.75032762 33.14451762 0.69239566 34.5234244 0.63476562 35.90234375 C0.53802883 38.07267656 0.43785731 40.24272403 0.33129883 42.41259766 C0.23051766 44.50913322 0.14373761 46.60590399 0.05859375 48.703125 C-0.00013916 49.95770508 -0.05887207 51.21228516 -0.11938477 52.50488281 C0.00252882 56.07403392 0.74601273 58.67954056 2 62 C2.22663986 64.71061275 2.0940868 67.27148292 2 70 C-2.98356608 60.98376487 -3.43858749 50.42153591 -3.29296875 40.35546875 C-3.28872391 39.21966873 -3.28447906 38.08386871 -3.28010559 36.91365051 C-3.26350925 33.33801062 -3.22589393 29.76296529 -3.1875 26.1875 C-3.17242852 23.74154468 -3.15874447 21.2955804 -3.14648438 18.84960938 C-3.11366852 12.89954175 -3.06366396 6.94981337 -3 1 C-1 0 -1 0 0 0 Z " fill="#5E66C7" transform="translate(149,158)"/>
<path d="M0 0 C6.38949784 2.85069904 10.5876004 8.02830069 14 14 C14.99 14.66 15.98 15.32 17 16 C17.7744984 17.65845925 18.53904259 19.32364182 19.21435547 21.02490234 C19.99813619 22.99531442 20.86014084 24.90928851 21.75390625 26.83203125 C24.77380826 33.44263536 27.57114479 39.66629691 28.66796875 46.91015625 C28.98822115 49.26937919 28.98822115 49.26937919 30.125 52.5 C31.26295116 57.05180466 31.16895648 61.33492389 31 66 C30.505 65.01 30.505 65.01 30 64 C29.34 64 28.68 64 28 64 C27.34 61.36 26.68 58.72 26 56 C26.66 56 27.32 56 28 56 C27.79503906 55.29875 27.59007812 54.5975 27.37890625 53.875 C24.9078256 45.17301262 24.9078256 45.17301262 24.4375 40.6875 C24.02085351 37.17576531 23.35243842 34.26176324 22 31 C21.34 30.67 20.68 30.34 20 30 C18.95405036 27.69891078 18.11757093 25.36749717 17.34765625 22.9609375 C16.09649848 18.63061841 16.09649848 18.63061841 12.875 15.8125 C12.25625 15.544375 11.6375 15.27625 11 15 C10.66666667 13.33333333 10.33333333 11.66666667 10 10 C8.6723885 9.32201037 7.33811193 8.65702259 6 8 C4.296875 6.30859375 4.296875 6.30859375 2.75 4.4375 C1.96882812 3.50744141 1.96882812 3.50744141 1.171875 2.55859375 C0 1 0 1 0 0 Z " fill="#5E65C4" transform="translate(736,85)"/>
<path d="M0 0 C0.90258545 0.03770508 1.8051709 0.07541016 2.73510742 0.11425781 C9.02553072 0.51789667 14.67174004 1.89191821 20.625 3.9375 C20.625 4.5975 20.625 5.2575 20.625 5.9375 C21.615 6.2675 22.605 6.5975 23.625 6.9375 C17.06721206 6.08213636 10.60879655 4.81859244 4.15234375 3.390625 C-5.51109155 1.65807709 -19.40100843 2.45050421 -28.375 6.9375 C-30.37460012 6.977492 -32.37547242 6.98096799 -34.375 6.9375 C-34.705 7.9275 -35.035 8.9175 -35.375 9.9375 C-38.80716548 13.36966548 -42.77397658 13.94061159 -47.375 14.9375 C-46.375 11.9375 -46.375 11.9375 -44.40625 10.65625 C-38.81247373 7.96295031 -33.33626745 5.66476174 -27.375 3.9375 C-25.71791016 3.39029297 -25.71791016 3.39029297 -24.02734375 2.83203125 C-15.92706137 0.33003802 -8.47534373 -0.36952069 0 0 Z " fill="#5D63CE" transform="translate(695.375,68.0625)"/>
<path d="M0 0 C1.084021 0.00523682 2.16804199 0.01047363 3.28491211 0.01586914 C5.03964844 0.02070312 5.03964844 0.02070312 6.82983398 0.02563477 C8.67738281 0.03820312 8.67738281 0.03820312 10.56225586 0.05102539 C12.41560547 0.05779297 12.41560547 0.05779297 14.30639648 0.06469727 C17.37089703 0.07652931 20.43530307 0.09301366 23.49975586 0.11352539 C23.49975586 0.44352539 23.49975586 0.77352539 23.49975586 1.11352539 C20.52975586 1.11352539 17.55975586 1.11352539 14.49975586 1.11352539 C14.49975586 1.77352539 14.49975586 2.43352539 14.49975586 3.11352539 C11.06455106 5.40366192 9.51442486 5.29195512 5.49975586 5.11352539 C5.16975586 5.77352539 4.83975586 6.43352539 4.49975586 7.11352539 C3.83975586 7.36102539 3.17975586 7.60852539 2.49975586 7.86352539 C0.24381721 8.9675769 0.24381721 8.9675769 -0.25024414 11.61352539 C-0.51382412 15.30364515 -0.51373892 18.93601959 -0.46899414 22.63305664 C-0.50985872 25.87668236 -0.94501858 28.92097842 -1.50024414 32.11352539 C-3.62895964 28.63913688 -3.74573173 25.88657251 -3.73071289 21.85180664 C-3.7287793 20.65104492 -3.7268457 19.4502832 -3.72485352 18.21313477 C-3.71260742 16.96338867 -3.70036133 15.71364258 -3.68774414 14.42602539 C-3.68709961 13.16467773 -3.68645508 11.90333008 -3.68579102 10.60375977 C-3.63519957 0.16505886 -3.63519957 0.16505886 0 0 Z " fill="#626FE3" transform="translate(365.500244140625,71.886474609375)"/>
<path d="M0 0 C0.33 0 0.66 0 1 0 C1 16.17 1 32.34 1 49 C-6.26 49 -13.52 49 -21 49 C-18 46 -18 46 -15.2578125 45.671875 C-14.22398437 45.69765625 -13.19015625 45.7234375 -12.125 45.75 C-10.58199219 45.77320312 -10.58199219 45.77320312 -9.0078125 45.796875 C-6.24530013 45.98343428 -3.70338136 46.430206 -1 47 C-1.0611499 45.29070312 -1.0611499 45.29070312 -1.12353516 43.546875 C-1.2727978 39.29053356 -1.40712555 35.03382566 -1.53710938 30.77685547 C-1.59525397 28.93980943 -1.65736603 27.10288427 -1.72363281 25.26611328 C-1.81856754 22.61513301 -1.89889056 19.96403563 -1.9765625 17.3125 C-2.00875885 16.50071289 -2.0409552 15.68892578 -2.0741272 14.85253906 C-2.21168046 9.53225623 -1.49778524 5.11189502 0 0 Z " fill="#6169C5" transform="translate(350,73)"/>
<path d="M0 0 C0.33 0 0.66 0 1 0 C1 14.19 1 28.38 1 43 C-2.23464083 44.61732041 -5.74708451 43.99875197 -9.2890625 43.87890625 C-10.10748627 43.85529526 -10.92591003 43.83168427 -11.76913452 43.80735779 C-14.3879306 43.73067056 -17.00643471 43.64666817 -19.625 43.5625 C-21.39842312 43.50928437 -23.17186058 43.45654393 -24.9453125 43.40429688 C-29.29706054 43.2750486 -33.64856061 43.13923848 -38 43 C-38.33 42.34 -38.66 41.68 -39 41 C-26.46 40.67 -13.92 40.34 -1 40 C-0.67 26.8 -0.34 13.6 0 0 Z " fill="#6169C3" transform="translate(239,76)"/>
<path d="M0 0 C2 2 2 2 2.24723816 4.30160522 C2.24510063 5.7424498 2.24510063 5.7424498 2.24291992 7.21240234 C2.24599655 8.30048187 2.24907318 9.3885614 2.25224304 10.50961304 C2.24505753 11.68980011 2.23787201 12.86998718 2.23046875 14.0859375 C2.22978142 15.89863632 2.22978142 15.89863632 2.2290802 17.74795532 C2.22605428 20.30854268 2.21815793 22.86912813 2.20581055 25.4296875 C2.18760847 29.35162883 2.18530046 33.27333344 2.18554688 37.1953125 C2.18062968 39.67968954 2.17480048 42.16406498 2.16796875 44.6484375 C2.16685593 45.82457611 2.1657431 47.00071472 2.16459656 48.2124939 C2.15821671 49.30687775 2.15183685 50.4012616 2.14526367 51.52880859 C2.14145187 52.49096283 2.13764008 53.45311707 2.13371277 54.44442749 C2.00909292 56.82621244 1.87540169 58.77988476 1 61 C-2.47325181 62.1577506 -5.36067448 62.06866652 -9 62 C-6.25002779 60.5268006 -4.10380501 59.77595125 -1 59 C-0.67 39.53 -0.34 20.06 0 0 Z " fill="#5B63BE" transform="translate(489,249)"/>
<path d="M0 0 C0.33 0 0.66 0 1 0 C1.25470125 3.60284066 1.47435483 7.20698109 1.6875 10.8125 C1.76033203 11.83666016 1.83316406 12.86082031 1.90820312 13.91601562 C1.99038086 15.39038086 1.99038086 15.39038086 2.07421875 16.89453125 C2.13182373 17.80050049 2.18942871 18.70646973 2.2487793 19.63989258 C2 22 2 22 0.61303711 23.7434082 C-5.33601575 28.37785274 -12.55772652 30.66259432 -19.6875 32.8125 C-20.39986816 33.03147949 -21.11223633 33.25045898 -21.84619141 33.47607422 C-26.38067684 34.78262087 -30.28347109 35.21635454 -35 35 C-32.77755441 32.77755441 -31.70079973 32.47883396 -28.71875 31.7109375 C-27.87699219 31.49179687 -27.03523437 31.27265625 -26.16796875 31.046875 C-25.28753906 30.82515625 -24.40710938 30.6034375 -23.5 30.375 C-22.17935547 30.03082031 -22.17935547 30.03082031 -20.83203125 29.6796875 C-14.30324591 28 -14.30324591 28 -12 28 C-11.67 26.68 -11.34 25.36 -11 24 C-9.63875 24.0309375 -9.63875 24.0309375 -8.25 24.0625 C-5.57327412 24.0110245 -3.53011948 23.7784983 -1 23 C-0.11672058 18.31680285 -0.11672058 18.31680285 -0.5 13.625 C-1.06698632 10.64832184 -0.8884867 8.19382176 -0.5625 5.1875 C-0.46066406 4.21167969 -0.35882812 3.23585937 -0.25390625 2.23046875 C-0.17011719 1.49441406 -0.08632813 0.75835937 0 0 Z " fill="#5D64CD" transform="translate(756,226)"/>
<path d="M0 0 C0.515625 0.268125 1.03125 0.53625 1.5625 0.8125 C4.66401415 2.32349407 7.82262806 3.65572726 11 5 C7.34361463 6.3542168 5.48672608 5.51496224 2 4 C1.9729183 6.72923388 1.95312153 9.45819637 1.9375 12.1875 C1.92912109 12.95642578 1.92074219 13.72535156 1.91210938 14.51757812 C1.89876706 17.6263383 1.89601817 20.49405856 2.5234375 23.546875 C3.20861056 27.07383142 2.92563709 30.50349223 2.6875 34.0625 C2.65205078 34.76955078 2.61660156 35.47660156 2.58007812 36.20507812 C2.34774489 39.89813627 2.00806383 42.84447112 0 46 C-1.21004715 41.26315205 -1.14442377 36.649692 -1.1328125 31.796875 C-1.13376923 30.91847961 -1.13472595 30.04008423 -1.13571167 29.1350708 C-1.13639019 27.28601001 -1.13455885 25.4369468 -1.13037109 23.58789062 C-1.12499251 20.7460401 -1.1303403 17.90434579 -1.13671875 15.0625 C-1.13605841 13.26562465 -1.13477817 11.4687494 -1.1328125 9.671875 C-1.13483673 8.81777039 -1.13686096 7.96366577 -1.13894653 7.0836792 C-1.1149675 1.1149675 -1.1149675 1.1149675 0 0 Z " fill="#5D64D2" transform="translate(4,199)"/>
<path d="M0 0 C0.99 0.33 1.98 0.66 3 1 C3 15.85 3 30.7 3 46 C2.01 45.67 1.02 45.34 0 45 C0 30.15 0 15.3 0 0 Z " fill="#5D67CB" transform="translate(415,208)"/>
<path d="M0 0 C0.33 0 0.66 0 1 0 C1.00364563 1.00953735 1.00729126 2.01907471 1.01104736 3.0592041 C1.04805697 12.59296465 1.10589475 22.12640397 1.18390274 31.65991974 C1.22334021 36.56072795 1.25554699 41.46135749 1.27099609 46.36230469 C1.28618724 51.09579247 1.32067639 55.82878892 1.36830902 60.5620575 C1.38309749 62.36402607 1.39103956 64.16606481 1.39188385 65.96809387 C1.39426295 68.50074076 1.42141674 71.0320401 1.45410156 73.56445312 C1.4490712 74.30245148 1.44404083 75.04044983 1.43885803 75.80081177 C1.57976601 82.90006481 4.48118158 88.57741789 9 94 C6.63529589 93.6252019 5.29111858 93.27570205 3.53279114 91.61048889 C-1.68821576 83.39870623 -0.6258457 74.10314748 -0.48828125 64.74609375 C-0.47894346 62.87566579 -0.47183192 61.0052255 -0.46684265 59.13478088 C-0.44784882 54.2371074 -0.39881457 49.34018784 -0.34332275 44.44281006 C-0.29196508 39.43528438 -0.26929348 34.42763561 -0.24414062 29.41992188 C-0.19068771 19.61295194 -0.10546826 9.80653892 0 0 Z " fill="#5C65C0" transform="translate(199,119)"/>
<path d="M0 0 C0.66 0.66 1.32 1.32 2 2 C-2.47806581 2.24425814 -5.87391912 2.20289479 -10.0625 0.5625 C-23.12507077 -4.18752573 -40.39562742 -2.90938563 -54 -1 C-54 -1.99 -54 -2.98 -54 -4 C-37.00803414 -7.79089877 -16.34814135 -5.8238181 0 0 Z " fill="#6269CD" transform="translate(111,73)"/>
<path d="M0 0 C3.465 1.98 3.465 1.98 7 4 C7 4.66 7 5.32 7 6 C7.60328125 6.12117187 8.2065625 6.24234375 8.828125 6.3671875 C9.62734375 6.53476563 10.4265625 6.70234375 11.25 6.875 C12.03890625 7.03742188 12.8278125 7.19984375 13.640625 7.3671875 C16 8 16 8 17.98046875 9.03125 C27.03037255 13.37240308 41.10424162 11.09316091 51 11 C50.67 11.66 50.34 12.32 50 13 C21.28240326 13.8022537 21.28240326 13.8022537 10 9 C7.05328253 8.10317294 5.20705844 8 2 8 C2.33 6.68 2.66 5.36 3 4 C2.01 3.34 1.02 2.68 0 2 C0 1.34 0 0.68 0 0 Z " fill="#6068C8" transform="translate(671,206)"/>
<path d="M0 0 C1.95825873 -0.02694851 3.91662226 -0.04637218 5.875 -0.0625 C6.96554687 -0.07410156 8.05609375 -0.08570313 9.1796875 -0.09765625 C12 0 12 0 14 1 C16.44609813 1.04631665 18.86810435 1.0466043 21.3125 1 C28.46515216 0.88791143 28.46515216 0.88791143 31.3671875 1.49609375 C35.496608 2.28644278 39.61952048 2.10314783 43.8125 2.0625 C45.13797852 2.05573242 45.13797852 2.05573242 46.49023438 2.04882812 C48.66018559 2.03709866 50.83010172 2.01916495 53 2 C53 2.33 53 2.66 53 3 C38.90298475 4.75429523 26.03359334 5.87271344 12 3 C9.77233367 2.61618787 7.54314428 2.24110809 5.3125 1.875 C3.79076172 1.62363281 3.79076172 1.62363281 2.23828125 1.3671875 C1.49964844 1.24601562 0.76101563 1.12484375 0 1 C0 0.67 0 0.34 0 0 Z " fill="#6067C2" transform="translate(668,259)"/>
<path d="M0 0 C3.37497326 1.09686631 6.69752929 2.26691534 10 3.5625 C13.32944073 4.82126776 16.46617272 5.49516753 20 6 C21.36329734 6.32260444 22.72515185 6.65133495 24.0859375 6.984375 C28.95324483 8.0771163 33.71301107 8.46809592 38.6875 8.6875 C39.50283203 8.73455078 40.31816406 8.78160156 41.15820312 8.83007812 C45.6012845 9.04917915 49.61771313 8.94158991 54 8 C53.67 8.66 53.34 9.32 53 10 C47.81100071 11.61037909 43.41000193 12.22541675 38 12 C38 11.67 38 11.34 38 11 C36.63681641 10.96132812 36.63681641 10.96132812 35.24609375 10.921875 C22.75952326 10.35837849 11.01274385 8.29299648 0 2 C0 1.34 0 0.68 0 0 Z " fill="#5E65C7" transform="translate(21,207)"/>
<path d="M0 0 C3.58790575 0.29899215 4.78166776 0.76986601 7.3125 3.4375 C9 6 9 6 9 8 C10.32 8.33 11.64 8.66 13 9 C13.1953125 11.01822917 13.390625 13.03645833 13.5859375 15.0546875 C13.86374749 17.22668245 13.86374749 17.22668245 16 19 C16.91839249 22.95569055 17.40433396 26.98438931 18 31 C18.14953125 31.73992187 18.2990625 32.47984375 18.453125 33.2421875 C18.8125 35.0625 18.8125 35.0625 19 38 C17.51171875 39.68359375 17.51171875 39.68359375 16 41 C16.061875 39.7625 16.12375 38.525 16.1875 37.25 C16.13681375 26.45382944 12.43657592 14.68431465 5.5703125 6.2421875 C4.42683357 5.11224087 3.21817633 4.04898517 2 3 C1.34 2.01 0.68 1.02 0 0 Z " fill="#5F65C9" transform="translate(530,122)"/>
<path d="M0 0 C1.32 0 2.64 0 4 0 C5.23080509 2.46161017 5.12043977 4.06496993 5.11352539 6.81689453 C5.11344986 7.81778107 5.11337433 8.8186676 5.11329651 9.84988403 C5.10813522 10.93325043 5.10297394 12.01661682 5.09765625 13.1328125 C5.0962413 14.23978485 5.09482635 15.3467572 5.09336853 16.48727417 C5.08775772 20.03320993 5.07520337 23.57908323 5.0625 27.125 C5.05748639 29.52473867 5.05292325 31.92447833 5.04882812 34.32421875 C5.03778478 40.21616725 5.0210361 46.10807916 5 52 C3.55463265 51.52018557 2.10943376 51.03986364 0.66430664 50.55932617 C-0.14050644 50.29190109 -0.94531952 50.02447601 -1.77452087 49.74894714 C-5.21973087 48.58952033 -8.60444369 47.29648513 -12 46 C-10.68 45.34 -9.36 44.68 -8 44 C-4.04 45.98 -0.08 47.96 4 50 C4 34.49 4 18.98 4 3 C3.34 3 2.68 3 2 3 C2 2.34 2 1.68 2 1 C1.34 0.67 0.68 0.34 0 0 Z " fill="#656EB7" transform="translate(122,77)"/>
<path d="M0 0 C4.51617599 -0.07654536 8.59085217 -0.10228696 13 1 C13 1.66 13 2.32 13 3 C13.67579102 2.98952637 14.35158203 2.97905273 15.04785156 2.96826172 C18.11519642 2.92664024 21.18248178 2.90065427 24.25 2.875 C25.84521484 2.84986328 25.84521484 2.84986328 27.47265625 2.82421875 C28.49746094 2.81777344 29.52226563 2.81132812 30.578125 2.8046875 C31.52075195 2.79421387 32.46337891 2.78374023 33.43457031 2.77294922 C36.09951941 3.00880787 37.71863092 3.64338341 40 5 C21.14202382 7.6705195 21.14202382 7.6705195 12 5 C10.35505241 4.68287061 8.70922361 4.37027422 7.0625 4.0625 C3.75462844 3.44415014 2.2160294 2.54947583 0 0 Z " fill="#6066C6" transform="translate(503,257)"/>
<path d="M0 0 C0.69462845 -0.00095673 1.3892569 -0.00191345 2.10493469 -0.00289917 C3.58029266 -0.00358127 5.05565361 -0.0017249 6.53100586 0.00244141 C8.77399597 0.00774912 11.01678212 0.00251851 13.25976562 -0.00390625 C14.69401086 -0.00324468 16.12825596 -0.0019619 17.5625 0 C19.51675903 0.00169189 19.51675903 0.00169189 21.51049805 0.00341797 C24.80831119 0.12185945 27.87849507 0.50366143 31.11328125 1.1328125 C31.11328125 1.4628125 31.11328125 1.7928125 31.11328125 2.1328125 C29.41171875 2.349375 29.41171875 2.349375 27.67578125 2.5703125 C24.30550924 2.74452728 24.30550924 2.74452728 23.11328125 4.1328125 C16.48497361 4.59462082 9.74388062 4.08369941 3.11328125 3.7578125 C2.37142578 3.72703613 1.62957031 3.69625977 0.86523438 3.66455078 C-2.84878142 3.45906919 -4.72636452 3.23971532 -7.88671875 1.1328125 C-5.97348918 -0.78041707 -2.53289397 0.00220238 0 0 Z " fill="#646BCD" transform="translate(50.88671875,259.8671875)"/>
<path d="M0 0 C8.91 0 17.82 0 27 0 C28.53371845 5.36801456 29.430756 9.59218201 30 15 C29.34 15 28.68 15 28 15 C26.86235649 10.73383684 26 7.43513689 26 3 C24.80761719 3 23.61523438 3 22.38671875 3 C16.92447917 3 11.46223958 3 6 3 C4.66018514 3.3062434 3.32488113 3.63451555 2 4 C1.34 2.68 0.68 1.36 0 0 Z " fill="#5F67D0" transform="translate(276,72)"/>
<path d="M0 0 C1.670625 0.2475 1.670625 0.2475 3.375 0.5 C6.94351384 1.26487734 6.94351384 1.26487734 10 0 C11.55643549 -0.01553817 13.11400687 0.03201313 14.66796875 0.12109375 C16.00698242 0.19360352 16.00698242 0.19360352 17.37304688 0.26757812 C18.76620117 0.35168945 18.76620117 0.35168945 20.1875 0.4375 C21.59805664 0.51581055 21.59805664 0.51581055 23.03710938 0.59570312 C25.35841501 0.72531918 27.67928409 0.86028181 30 1 C30 1.66 30 2.32 30 3 C20.43 3 10.86 3 1 3 C1.32698517 10.60002919 1.32698517 10.60002919 4.5625 15.9375 C7 19 7 19 7 21 C3.90169371 19.93161852 3.03365395 19.05608991 1.3125 16.1875 C-0.82219285 11.00324593 -1.21581573 6.611209 -1 1 C-0.67 0.67 -0.34 0.34 0 0 Z " fill="#6067C5" transform="translate(664,184)"/>
<path d="M0 0 C0.78568359 -0.00773437 1.57136719 -0.01546875 2.38085938 -0.0234375 C6.99946757 -0.00797772 10.71811314 0.49271992 15.0625 2.25 C12.10680344 3.1097088 9.54493601 3.34764836 6.47265625 3.27734375 C5.60576172 3.26509766 4.73886719 3.25285156 3.84570312 3.24023438 C2.03572576 3.20515226 0.22582078 3.16610641 -1.58398438 3.12304688 C-7.99635095 3.00831688 -7.99635095 3.00831688 -13.9375 5.25 C-16.10014357 8.277701 -16.63175791 11.5810949 -16.9375 15.25 C-16.11407468 17.56980946 -16.11407468 17.56980946 -14.9375 19.25 C-15.9275 19.25 -16.9175 19.25 -17.9375 19.25 C-19.68330224 15.75839553 -19.50733131 12.05954642 -18.9375 8.25 C-17.29108714 5.00499539 -15.04596722 2.84922674 -11.8203125 1.10546875 C-7.84356897 -0.07462181 -4.12523994 -0.04041051 0 0 Z " fill="#5D63CB" transform="translate(73.9375,113.75)"/>
<path d="M0 0 C0.33 0 0.66 0 1 0 C2.19603333 5.87880791 2.37536699 11.77349197 2.625 17.75 C2.6765625 18.78382812 2.728125 19.81765625 2.78125 20.8828125 C3.05850304 27.35748647 2.84835489 33.57393497 2 40 C1.34 40 0.68 40 0 40 C0 26.8 0 13.6 0 0 Z " fill="#595FD2" transform="translate(198,32)"/>
<path d="M0 0 C0.33 0 0.66 0 1 0 C1 4.29 1 8.58 1 13 C1.886875 12.855625 2.77375 12.71125 3.6875 12.5625 C9.42593581 11.73256094 15.21954276 11.40854359 21 11 C17.59363053 13.27091298 14.50162743 13.88476129 10.5625 14.625 C9.89412109 14.7590625 9.22574219 14.893125 8.53710938 15.03125 C5.26683498 15.66650647 2.34797714 16 -1 16 C-1.22281874 14.08496326 -1.42771076 12.16783494 -1.625 10.25 C-1.74101562 9.18265625 -1.85703125 8.1153125 -1.9765625 7.015625 C-2.00029475 3.96207601 -1.61420985 2.53837579 0 0 Z " fill="#6166C0" transform="translate(364,41)"/>
<path d="M0 0 C15.18 0 30.36 0 46 0 C46 0.33 46 0.66 46 1 C33.21819692 1.93036641 20.78180308 1.93036641 8 1 C8 1.66 8 2.32 8 3 C5.03 3 2.06 3 -1 3 C-0.67 2.01 -0.34 1.02 0 0 Z " fill="#5963DD" transform="translate(695,184)"/>
<path d="M0 0 C11.21228255 2.18776245 21.5011224 6.61819842 32 11 C32 11.66 32 12.32 32 13 C28.68963065 12.22322474 25.59565408 11.10479414 22.41796875 9.89453125 C14.01160979 6.70871011 14.01160979 6.70871011 5.32421875 4.5078125 C3 4 3 4 0 2 C0 1.34 0 0.68 0 0 Z " fill="#5D62C8" transform="translate(66,139)"/>
<path d="M0 0 C0.6875 2.0625 0.6875 2.0625 1 4 C0.34 4 -0.32 4 -1 4 C-1 3.34 -1 2.68 -1 2 C-3.97 1.505 -3.97 1.505 -7 1 C-7 1.33 -7 1.66 -7 2 C-7.763125 2.144375 -8.52625 2.28875 -9.3125 2.4375 C-12.08172908 2.9632594 -12.08172908 2.9632594 -15 4 C-17.33498858 3.33915417 -19.66816393 2.67188497 -22 2 C-25.29219428 1.83152909 -25.29219428 1.83152909 -28 2 C-28 1.34 -28 0.68 -28 0 C-5.96954315 -1.98984772 -5.96954315 -1.98984772 0 0 Z " fill="#5F6ACE" transform="translate(417,73)"/>
<path d="M0 0 C1.485 0.99 1.485 0.99 3 2 C3 2.66 3 3.32 3 4 C3.99 4.33 4.98 4.66 6 5 C7.02734375 6.71484375 7.02734375 6.71484375 7.9375 8.9375 C8.27136719 9.7521875 8.60523438 10.566875 8.94921875 11.40625 C9.29597656 12.2621875 9.64273438 13.118125 10 14 C10.37769531 14.8146875 10.75539062 15.629375 11.14453125 16.46875 C13.8365826 22.48068094 14.50230165 27.44217288 14 34 C13.67 34 13.34 34 13 34 C13 31.03 13 28.06 13 25 C12.01 24.67 11.02 24.34 10 24 C9.26953125 22.15234375 9.26953125 22.15234375 8.8125 19.9375 C8.65394531 19.20402344 8.49539062 18.47054687 8.33203125 17.71484375 C8.22246094 17.14894531 8.11289063 16.58304688 8 16 C7.67 16 7.34 16 7 16 C6.74476563 15.11248047 6.74476563 15.11248047 6.484375 14.20703125 C4.98383027 9.31429763 3.42775087 5.90054409 0 2 C0 1.34 0 0.68 0 0 Z " fill="#5F66BF" transform="translate(124,167)"/>
<path d="M0 0 C2 1 2 1 3.0703125 3.80859375 C5.17179103 11.03923654 6.6254609 17.45972137 6 25 C5.67 24.34 5.34 23.68 5 23 C4.34 23 3.68 23 3 23 C2.34 20.36 1.68 17.72 1 15 C1.66 15 2.32 15 3 15 C2.7834375 14.25234375 2.566875 13.5046875 2.34375 12.734375 C1.92609375 11.25710937 1.92609375 11.25710937 1.5 9.75 C1.2215625 8.77546875 0.943125 7.8009375 0.65625 6.796875 C0 4 0 4 0 0 Z " fill="#6069D1" transform="translate(761,126)"/>
<path d="M0 0 C0.66 0.33 1.32 0.66 2 1 C0.02 3.31 -1.96 5.62 -4 8 C-4.66 7.67 -5.32 7.34 -6 7 C-6.763125 7.495 -7.52625 7.99 -8.3125 8.5 C-13.82057779 10.74057401 -19.20790683 10.06401712 -25 9 C-25.66 8.34 -26.32 7.68 -27 7 C-23.29017197 6.21898357 -19.94986952 6.01728359 -16.1875 6.1875 C-10.78965503 6.26099562 -6.6217038 4.72919578 -2 2 C-1.34 1.34 -0.68 0.68 0 0 Z " fill="#6067CB" transform="translate(532,208)"/>
<path d="M0 0 C0.66 0.99 1.32 1.98 2 3 C1 4 1 4 -1.09437561 4.12025452 C-2.01592941 4.11803391 -2.93748322 4.11581329 -3.88696289 4.11352539 C-4.92796646 4.11344986 -5.96897003 4.11337433 -7.04151917 4.11329651 C-8.1737944 4.10813522 -9.30606964 4.10297394 -10.47265625 4.09765625 C-11.62543564 4.0962413 -12.77821503 4.09482635 -13.96592712 4.09336853 C-17.66481064 4.08775005 -21.36363464 4.07519442 -25.0625 4.0625 C-27.56315017 4.05748738 -30.06380129 4.05292406 -32.56445312 4.04882812 C-38.70965588 4.03777462 -44.85482369 4.02101852 -51 4 C-51 3.67 -51 3.34 -51 3 C-34.5 3 -18 3 -1 3 C-0.67 2.01 -0.34 1.02 0 0 Z " fill="#606BC4" transform="translate(416,256)"/>
<path d="M0 0 C16.9412307 -0.27033879 16.9412307 -0.27033879 24 1 C24.33 1.66 24.66 2.32 25 3 C22.58303128 3.05411124 20.16728213 3.09372278 17.75 3.125 C17.06808594 3.14175781 16.38617188 3.15851563 15.68359375 3.17578125 C11.9391765 3.21213482 9.17647273 3.07944349 6 1 C5.67 1.99 5.34 2.98 5 4 C2.03 3.505 2.03 3.505 -1 3 C-0.67 2.01 -0.34 1.02 0 0 Z " fill="#6169D2" transform="translate(201,72)"/>
<path d="M0 0 C2.9375 0.8125 2.9375 0.8125 6 2 C6.33 2.99 6.66 3.98 7 5 C7.66386719 5.10957031 8.32773437 5.21914062 9.01171875 5.33203125 C13.95688117 6.21999472 17.81210878 7.08116672 22 10 C22.99 10.33 23.98 10.66 25 11 C24.67 11.99 24.34 12.98 24 14 C15.60609976 10.11642215 7.23861587 6.20654034 -1 2 C-0.67 1.34 -0.34 0.68 0 0 Z " fill="#6067C9" transform="translate(26,170)"/>
<path d="M0 0 C1.93709638 3.25753924 2.23715445 5.65609928 2.1953125 9.421875 C2.18886719 10.44667969 2.18242187 11.47148437 2.17578125 12.52734375 C2.15902344 13.59082031 2.14226562 14.65429688 2.125 15.75 C2.11597656 16.82894531 2.10695313 17.90789062 2.09765625 19.01953125 C2.07411305 21.67991278 2.04122799 24.33984336 2 27 C1.34 26.67 0.68 26.34 0 26 C-1.39216882 17.50777022 -1.93855323 8.43116801 0 0 Z " fill="#5A66D4" transform="translate(363,234)"/>
<path d="M0 0 C8.58 0 17.16 0 26 0 C26 0.33 26 0.66 26 1 C23.03 1 20.06 1 17 1 C17 1.66 17 2.32 17 3 C12.05 3 7.1 3 2 3 C1.67 4.32 1.34 5.64 1 7 C-0.0625 5.1875 -0.0625 5.1875 -1 3 C-0.67 2.01 -0.34 1.02 0 0 Z " fill="#5D68CA" transform="translate(363,72)"/>
<path d="M0 0 C0.99 0.33 1.98 0.66 3 1 C1.48529691 4.02940618 -0.9403821 4.64960546 -3.9375 6.125 C-5.01902344 6.66382813 -6.10054687 7.20265625 -7.21484375 7.7578125 C-10 9 -10 9 -12 9 C-12 9.66 -12 10.32 -12 11 C-14.64 11.33 -17.28 11.66 -20 12 C-20 11.34 -20 10.68 -20 10 C-16.06204287 7.93726055 -12.20878128 6.40292709 -8 5 C-6.9275 4.46375 -5.855 3.9275 -4.75 3.375 C-2 2 -2 2 0 2 C0 1.34 0 0.68 0 0 Z " fill="#5A62CA" transform="translate(564,249)"/>
<path d="M0 0 C4.65893055 3.1059537 6.04730978 7.89296404 8 13 C8.66 13 9.32 13 10 13 C11.2890625 14.53125 11.2890625 14.53125 12.625 16.5 C13.29402344 17.47453125 13.29402344 17.47453125 13.9765625 18.46875 C14.31429687 18.9740625 14.65203125 19.479375 15 20 C14.34 20.33 13.68 20.66 13 21 C6.79560662 15.32741177 3.08539701 8.26292801 -1 1 C-0.67 0.67 -0.34 0.34 0 0 Z " fill="#6064CC" transform="translate(151,228)"/>
<path d="M0 0 C0.33 0.66 0.66 1.32 1 2 C0.2776389 3.88224987 -0.52895017 5.73250824 -1.375 7.5625 C-4.12445623 13.89919692 -5 19.09277547 -5 26 C-5.99 25.01 -6.98 24.02 -8 23 C-7.67 22.67 -7.34 22.34 -7 22 C-6.81296346 20.33745302 -6.67609655 18.66917374 -6.5625 17 C-6.24232811 13.27921454 -5.86842731 9.61092366 -5.1875 5.9375 C-5.05730469 5.22464844 -4.92710937 4.51179688 -4.79296875 3.77734375 C-3.72257618 1.378188 -2.38687205 0.93441441 0 0 Z " fill="#5E69CD" transform="translate(669,122)"/>
<path d="M0 0 C0.99 0 1.98 0 3 0 C3 6.93 3 13.86 3 21 C2.01 21.33 1.02 21.66 0 22 C0 14.74 0 7.48 0 0 Z " fill="#5A66D9" transform="translate(362,18)"/>
<path d="M0 0 C0 0.66 0 1.32 0 2 C-1.15628906 2.61488281 -1.15628906 2.61488281 -2.3359375 3.2421875 C-3.33882812 3.78101562 -4.34171875 4.31984375 -5.375 4.875 C-6.87160156 5.67550781 -6.87160156 5.67550781 -8.3984375 6.4921875 C-11.05348395 7.8820138 -11.05348395 7.8820138 -13 10 C-13.99 10 -14.98 10 -16 10 C-16.33 11.65 -16.66 13.3 -17 15 C-18.32 14.67 -19.64 14.34 -21 14 C-19.54230778 10.26315364 -17.7673902 8.94701316 -14.3125 7 C-13.42175781 6.49210937 -12.53101563 5.98421875 -11.61328125 5.4609375 C-10.75089844 4.97882813 -9.88851563 4.49671875 -9 4 C-8.29230469 3.57976562 -7.58460937 3.15953125 -6.85546875 2.7265625 C-2.26285461 0 -2.26285461 0 0 0 Z " fill="#6268CC" transform="translate(39,75)"/>
<path d="M0 0 C0.93134766 0.00322266 1.86269531 0.00644531 2.82226562 0.00976562 C4.26182617 0.02233398 4.26182617 0.02233398 5.73046875 0.03515625 C6.70951172 0.03966797 7.68855469 0.04417969 8.69726562 0.04882812 C11.10422986 0.06056941 13.51106732 0.07699206 15.91796875 0.09765625 C14.92796875 1.58265625 14.92796875 1.58265625 13.91796875 3.09765625 C10.7578125 3.35546875 10.7578125 3.35546875 6.85546875 3.22265625 C1.10385985 3.08481062 -4.38173709 3.29761496 -10.08203125 4.09765625 C-10.08203125 3.10765625 -10.08203125 2.11765625 -10.08203125 1.09765625 C-6.65629188 0.32237146 -3.5096388 -0.02153153 0 0 Z " fill="#5A64D2" transform="translate(67.08203125,67.90234375)"/>
<path d="M0 0 C0.66 0 1.32 0 2 0 C6.09725159 5.54334038 6.09725159 5.54334038 5.8203125 9.69140625 C5.30656401 12.16514043 4.7209387 14.57900991 4 17 C1.69 17.66 -0.62 18.32 -3 19 C-3.33 18.34 -3.66 17.68 -4 17 C-3.401875 16.938125 -2.80375 16.87625 -2.1875 16.8125 C0.20657181 16.14158073 0.20657181 16.14158073 1.75 13.75 C3.09813872 10.78409482 3.49327246 9.20627098 3 6 C1.56009377 3.82967524 1.56009377 3.82967524 0 2 C0 1.34 0 0.68 0 0 Z " fill="#5E66CC" transform="translate(79,196)"/>
<path d="M0 0 C0.99 0.33 1.98 0.66 3 1 C2.04867188 1.67289062 2.04867188 1.67289062 1.078125 2.359375 C-2.04661127 6.32990455 -1.91861458 10.32064189 -2.25 15.25 C-2.32734375 16.18585938 -2.4046875 17.12171875 -2.484375 18.0859375 C-2.67244942 20.38984909 -2.84370871 22.69375053 -3 25 C-3.33 25 -3.66 25 -4 25 C-4.11667875 21.77113991 -4.18740546 18.54282555 -4.25 15.3125 C-4.28351563 14.40048828 -4.31703125 13.48847656 -4.3515625 12.54882812 C-4.45112665 5.70379255 -4.45112665 5.70379255 -1.984375 1.85546875 C-1.32953125 1.24316406 -0.6746875 0.63085938 0 0 Z " fill="#5D62C2" transform="translate(493,121)"/>
<path d="M0 0 C8.78843098 -0.62774507 16.60314556 1.69215289 25 4 C24.67 4.66 24.34 5.32 24 6 C15.73917587 4.98822759 7.88037524 3.723632 0 1 C0 0.67 0 0.34 0 0 Z " fill="#5E66CB" transform="translate(13,255)"/>
<path d="M0 0 C0.33 0 0.66 0 1 0 C1.95744681 20.91489362 1.95744681 20.91489362 -4 28 C-4.66 27.01 -5.32 26.02 -6 25 C-4.68 22.69 -3.36 20.38 -2 18 C-1.34 18 -0.68 18 0 18 C0 12.06 0 6.12 0 0 Z " fill="#5F67C1" transform="translate(136,201)"/>
<path d="M0 0 C0.99 0 1.98 0 3 0 C3 0.66 3 1.32 3 2 C-4.28640866 4.31993846 -11.50387484 6.47536437 -19 8 C-19 7.01 -19 6.02 -19 5 C-12.97090705 3.03560291 -7.29912073 1.68717681 -1 1 C-0.67 0.67 -0.34 0.34 0 0 Z " fill="#5C66CB" transform="translate(742,211)"/>
<path d="M0 0 C-0.33 0.99 -0.66 1.98 -1 3 C-6.77849056 4.30219506 -12.04740489 5.12148153 -18 5 C-18.99 5.33 -19.98 5.66 -21 6 C-21 5.34 -21 4.68 -21 4 C-19.12577848 3.51779737 -17.25058246 3.03938167 -15.375 2.5625 C-13.80878906 2.16224609 -13.80878906 2.16224609 -12.2109375 1.75390625 C-8.1160436 0.79245306 -4.2130118 0 0 0 Z " fill="#5F65CB" transform="translate(383,9)"/>
<path d="M0 0 C0.99 0.33 1.98 0.66 3 1 C3.061875 1.969375 3.12375 2.93875 3.1875 3.9375 C3.75508752 8.22496883 5.75429641 11.37419211 8.0390625 14.984375 C9 17 9 17 8 20 C3.53067004 13.68129212 0.79828801 7.82322246 0 0 Z " fill="#5860CC" transform="translate(615,204)"/>
<path d="M0 0 C2 3 2 3 2 5 C1.34 5 0.68 5 0 5 C-0.99 10.61 -1.98 16.22 -3 22 C-3.66 22 -4.32 22 -5 22 C-3.45454545 3.45454545 -3.45454545 3.45454545 0 0 Z " fill="#5D66C8" transform="translate(616,125)"/>
<path d="M0 0 C0.80179688 0.09990234 1.60359375 0.19980469 2.4296875 0.30273438 C4.41214691 0.5505418 6.39367009 0.80581807 8.375 1.0625 C8.375 1.3925 8.375 1.7225 8.375 2.0625 C4.64629547 2.26006803 0.91703204 2.44378099 -2.8125 2.625 C-3.86759766 2.68107422 -4.92269531 2.73714844 -6.00976562 2.79492188 C-7.54213867 2.86743164 -7.54213867 2.86743164 -9.10546875 2.94140625 C-10.04285889 2.9885376 -10.98024902 3.03566895 -11.94604492 3.08422852 C-14.63802932 3.06239432 -17.01016976 2.67836406 -19.625 2.0625 C-19.625 1.7325 -19.625 1.4025 -19.625 1.0625 C-18.68527344 0.97162109 -18.68527344 0.97162109 -17.7265625 0.87890625 C-16.50066406 0.75322266 -16.50066406 0.75322266 -15.25 0.625 C-14.43789062 0.54378906 -13.62578125 0.46257812 -12.7890625 0.37890625 C-8.20983953 -0.29061913 -4.7934563 -0.62641758 0 0 Z " fill="#646BC0" transform="translate(211.625,260.9375)"/>
<path d="M0 0 C0.99 0.33 1.98 0.66 3 1 C3 3.97 3 6.94 3 10 C2.34 10 1.68 10 1 10 C1 13.63 1 17.26 1 21 C0.67 21 0.34 21 0 21 C0 14.07 0 7.14 0 0 Z " fill="#545FDD" transform="translate(415,128)"/>
<path d="M0 0 C-5.38149787 3.07718628 -9.78060282 4.68375947 -16 5 C-16.99 4.67 -17.98 4.34 -19 4 C-16.58732675 3.132758 -14.17095531 2.28103064 -11.75 1.4375 C-11.06808594 1.19064453 -10.38617188 0.94378906 -9.68359375 0.68945312 C-3.41657839 -1.47053761 -3.41657839 -1.47053761 0 0 Z " fill="#5E66CB" transform="translate(102,256)"/>
<path d="M0 0 C3.58412725 1.43984378 5.03751147 3.12421841 7.0625 6.375 C8.93762953 9.34934338 10.85505117 12.212203 13 15 C12.67 15.66 12.34 16.32 12 17 C11.443125 16.278125 10.88625 15.55625 10.3125 14.8125 C8.05542929 11.96290043 8.05542929 11.96290043 5.4375 9.5 C0 3.92307692 0 3.92307692 0 0 Z " fill="#5F67C8" transform="translate(574,90)"/>
<path d="M0 0 C4.29 0 8.58 0 13 0 C13 0.99 13 1.98 13 3 C9.98968256 3.93423645 9.13349732 4.04449911 6 3 C3.85744207 3.38932856 3.85744207 3.38932856 2 4 C1.34 2.68 0.68 1.36 0 0 Z " fill="#5F6AD1" transform="translate(226,72)"/>
<path d="M0 0 C2 2 2 2 2.265625 4.13671875 C2.23285371 9.48663237 1.75992026 13.94022926 0 19 C-0.33 19 -0.66 19 -1 19 C-1.02683987 16.02077407 -1.04676037 13.04178705 -1.0625 10.0625 C-1.07087891 9.21236328 -1.07925781 8.36222656 -1.08789062 7.48632812 C-1.09111328 6.67744141 -1.09433594 5.86855469 -1.09765625 5.03515625 C-1.10289307 4.2862915 -1.10812988 3.53742676 -1.11352539 2.76586914 C-1 1 -1 1 0 0 Z " fill="#5A62DC" transform="translate(416,26)"/>
<path d="M0 0 C2 3.75 2 3.75 2 6 C2.66 6.33 3.32 6.66 4 7 C4 11.29 4 15.58 4 20 C0.71091189 15.61454919 0.47356809 12.9594022 0.3125 7.75 C0.27833984 7.00492188 0.24417969 6.25984375 0.20898438 5.4921875 C0.12685946 3.66197508 0.06174347 1.83101331 0 0 Z " fill="#5C67CB" transform="translate(611,184)"/>
<path d="M0 0 C-3.06848659 2.04565773 -5.32993651 2.78134287 -8.875 3.6875 C-9.90367187 3.95949219 -10.93234375 4.23148437 -11.9921875 4.51171875 C-15.0354359 5.00575258 -17.05155721 4.81054977 -20 4 C-13.93775593 0.67554357 -6.86061613 -0.36108506 0 0 Z " fill="#5B60C6" transform="translate(414,3)"/>
<path d="M0 0 C-3.1844217 2.1229478 -6.46769727 3.88865905 -9.84375 5.68359375 C-12.03620853 6.9055769 -12.03620853 6.9055769 -13.65625 8.66015625 C-15 10 -15 10 -17 10 C-14.29128084 3.37228291 -7.13836026 -1.09820927 0 0 Z " fill="#5F67C4" transform="translate(328,121)"/>
<path d="M0 0 C2.97 0.33 5.94 0.66 9 1 C7.99059621 4.02821137 6.78305524 6.36107824 5 9 C4.34 9 3.68 9 3 9 C2.957279 7.33388095 2.95936168 5.66617115 3 4 C3.33 3.67 3.66 3.34 4 3 C2.68 2.34 1.36 1.68 0 1 C0 0.67 0 0.34 0 0 Z " fill="#616BD8" transform="translate(341,71)"/>
<path d="M0 0 C3.15 4.725 3.15 4.725 2.75 8.125 C2.5025 8.74375 2.255 9.3625 2 10 C-1.47325181 11.1577506 -4.36067448 11.06866652 -8 11 C-5.36095629 9.58622659 -2.92879371 8.62759865 0 8 C0 5.36 0 2.72 0 0 Z " fill="#5C61D0" transform="translate(488,300)"/>
<path d="M0 0 C1 2 1 2 0.36328125 3.953125 C-1.76614759 8.60778729 -4.0132272 12.83985217 -7 17 C-7.33 16.01 -7.66 15.02 -8 14 C-6.70951192 11.97209016 -5.36821051 9.97630407 -4 8 C-2.91236598 5.69760591 -1.97005932 3.35585835 -1 1 C-0.67 0.67 -0.34 0.34 0 0 Z " fill="#5E64C6" transform="translate(591,215)"/>
<path d="M0 0 C0.33 1.32 0.66 2.64 1 4 C2.010625 3.67 3.02125 3.34 4.0625 3 C7.75479911 1.92998679 11.15248207 1.84295845 15 2 C11.96474514 4.02350324 10.80573798 4.32124018 7.3125 4.625 C6.50425781 4.69976562 5.69601562 4.77453125 4.86328125 4.8515625 C3.94095703 4.92503906 3.94095703 4.92503906 3 5 C3 5.66 3 6.32 3 7 C2.01 6.67 1.02 6.34 0 6 C0 4.02 0 2.04 0 0 Z " fill="#5E65C0" transform="translate(436,315)"/>
<path d="M0 0 C0 4.0333534 -1.60879918 5.83517538 -4 9 C-4.66 9 -5.32 9 -6 9 C-6.33 9.99 -6.66 10.98 -7 12 C-7.99 12.33 -8.98 12.66 -10 13 C-7.73457912 7.85131619 -4.68917123 3.12611416 0 0 Z " fill="#5E66C6" transform="translate(582,232)"/>
<path d="M0 0 C1.53166168 4.08443115 0.63081652 7.79455657 0 12 C-0.66 12 -1.32 12 -2 12 C-2 11.01 -2 10.02 -2 9 C-2.66 9 -3.32 9 -4 9 C-4 9.66 -4 10.32 -4 11 C-4.66 10.67 -5.32 10.34 -6 10 C-4.07119658 6.59244728 -2.1723491 3.25852365 0 0 Z " fill="#6067D0" transform="translate(629,99)"/>
<path d="M0 0 C0 0.66 0 1.32 0 2 C-3.3 2.33 -6.6 2.66 -10 3 C-10.66 2.01 -11.32 1.02 -12 0 C-7.6835078 -0.76173392 -4.25566547 -1.16063604 0 0 Z " fill="#5967D0" transform="translate(701,261)"/>
<path d="M0 0 C0.99 0.33 1.98 0.66 3 1 C3 1.66 3 2.32 3 3 C3.99 2.67 4.98 2.34 6 2 C7 6.75 7 6.75 7 9 C7.66 9 8.32 9 9 9 C9 9.66 9 10.32 9 11 C8.01 11 7.02 11 6 11 C3.58038084 7.57220619 1.83877471 3.76511013 0 0 Z " fill="#565ECD" transform="translate(7,152)"/>
<path d="M0 0 C0.66 0.33 1.32 0.66 2 1 C1.2575 1.845625 0.515 2.69125 -0.25 3.5625 C-2.98486187 6.82719266 -4.97901586 10.25743678 -7 14 C-7.67578125 12.2578125 -7.67578125 12.2578125 -8 10 C-6.85546875 7.9296875 -6.85546875 7.9296875 -5.1875 5.875 C-4.37345703 4.85019531 -4.37345703 4.85019531 -3.54296875 3.8046875 C-2 2 -2 2 0 0 Z " fill="#6269C3" transform="translate(16,90)"/>
<path d="M0 0 C0.33 0 0.66 0 1 0 C1.77313045 5.9114744 2.14819277 11.1314592 1 17 C-1.11441933 13.54839849 -1.24118936 10.81967844 -1.1875 6.8125 C-1.18105469 5.74644531 -1.17460937 4.68039063 -1.16796875 3.58203125 C-1 1 -1 1 0 0 Z " fill="#5864CE" transform="translate(363,87)"/>
<path d="M0 0 C-1 1 -1 1 -2.84765625 1.09765625 C-4.8984375 1.06510417 -6.94921875 1.03255208 -9 1 C-9 1.66 -9 2.32 -9 3 C-12.52948291 4.66670026 -14.28272326 5.13583456 -18 4 C-5.87096774 -2.93548387 -5.87096774 -2.93548387 0 0 Z " fill="#6266C3" transform="translate(339,70)"/>
<path d="M0 0 C3.93234192 1.52924408 7.63917062 3.35924911 11.375 5.3125 C7.72309147 6.52980284 6.83829838 5.95850214 3.375 4.5 C2.50875 4.14292969 1.6425 3.78585938 0.75 3.41796875 C-1.625 2.3125 -1.625 2.3125 -4.625 0.3125 C-2.625 -0.6875 -2.625 -0.6875 0 0 Z " fill="#5D64C1" transform="translate(114.625,121.6875)"/>
<path d="M0 0 C-3.0469629 1.69433918 -5.82821466 2.49467112 -9.25 3.125 C-10.58804688 3.37636719 -10.58804688 3.37636719 -11.953125 3.6328125 C-12.62859375 3.75398438 -13.3040625 3.87515625 -14 4 C-13.67 3.01 -13.34 2.02 -13 1 C-8.36166107 -1.20873282 -4.97047962 -0.99409592 0 0 Z " fill="#5B5FD4" transform="translate(197,28)"/>
<path d="M0 0 C4.51617599 -0.07654536 8.59085217 -0.10228696 13 1 C13 1.66 13 2.32 13 3 C11.39667209 3.08121924 9.79215974 3.13929134 8.1875 3.1875 C7.29417969 3.22230469 6.40085937 3.25710938 5.48046875 3.29296875 C2.58352485 2.95081002 1.77444972 2.24606427 0 0 Z " fill="#626AD1" transform="translate(503,257)"/>
<path d="M0 0 C1.98 0.99 3.96 1.98 6 3 C6 3.66 6 4.32 6 5 C7.32 5.33 8.64 5.66 10 6 C9.67 6.99 9.34 7.98 9 9 C7.02 8.01 5.04 7.02 3 6 C3 5.34 3 4.68 3 4 C1.68 3.34 0.36 2.68 -1 2 C-0.67 1.34 -0.34 0.68 0 0 Z " fill="#5D68C5" transform="translate(492,249)"/>
<path d="M0 0 C0.33 0 0.66 0 1 0 C1.33 6.27 1.66 12.54 2 19 C-1.37535717 14.49952377 -1.24570873 12.47641448 -0.6875 7.25 C-0.62626953 6.55261719 -0.56503906 5.85523438 -0.50195312 5.13671875 C-0.34937092 3.42310319 -0.17666411 1.7113005 0 0 Z " fill="#5F66C6" transform="translate(756,226)"/>
<path d="M0 0 C0.33 0.99 0.66 1.98 1 3 C0.21625 3.12375 -0.5675 3.2475 -1.375 3.375 C-4.14057822 3.79117993 -4.14057822 3.79117993 -6 6 C-7.32 6 -8.64 6 -10 6 C-9.67 5.01 -9.34 4.02 -9 3 C-6.93359375 2.05078125 -6.93359375 2.05078125 -4.4375 1.3125 C-3.61121094 1.06113281 -2.78492188 0.80976563 -1.93359375 0.55078125 C-1.29550781 0.36902344 -0.65742187 0.18726563 0 0 Z " fill="#6368C9" transform="translate(756,206)"/>
<path d="M0 0 C0.66 0 1.32 0 2 0 C2.5345256 1.24420647 3.05208611 2.49570936 3.5625 3.75 C3.85253906 4.44609375 4.14257812 5.1421875 4.44140625 5.859375 C5.07831803 8.30012784 4.80248831 9.6403655 4 12 C1.49484216 9.49484216 0.94900914 7.38931835 0 4 C0 2.68 0 1.36 0 0 Z " fill="#6269CE" transform="translate(2,138)"/>
<path d="M0 0 C2.57829164 3.79160536 1.72604511 6.64372933 1 11 C1.33 11.66 1.66 12.32 2 13 C1.0625 15.125 1.0625 15.125 0 17 C-0.33 17 -0.66 17 -1 17 C-1.02709444 14.91673869 -1.04643873 12.83337559 -1.0625 10.75 C-1.07410156 9.58984375 -1.08570313 8.4296875 -1.09765625 7.234375 C-1.01782092 4.59022872 -0.78643778 2.50173909 0 0 Z " fill="#5C63CD" transform="translate(363,109)"/>
<path d="M0 0 C0.66 0.33 1.32 0.66 2 1 C1.731875 1.639375 1.46375 2.27875 1.1875 2.9375 C-0.35364142 6.91202261 -1.67609312 10.94884495 -3 15 C-3.66 15 -4.32 15 -5 15 C-3.97137215 9.55432314 -2.75385216 4.88182883 0 0 Z " fill="#5C61CC" transform="translate(622,110)"/>
<path d="M0 0 C0 3 0 3 -1.71484375 4.75390625 C-2.44832031 5.35074219 -3.18179688 5.94757813 -3.9375 6.5625 C-6.92648955 8.91285524 -6.92648955 8.91285524 -9 12 C-9.99 11.67 -10.98 11.34 -12 11 C-10.56564079 9.5385774 -9.12739414 8.08096951 -7.6875 6.625 C-6.88699219 5.81289062 -6.08648438 5.00078125 -5.26171875 4.1640625 C-3 2 -3 2 0 0 Z " fill="#6064C2" transform="translate(645,83)"/>
<path d="M0 0 C4.95 0 9.9 0 15 0 C15 0.33 15 0.66 15 1 C13.44033408 1.36644578 11.87707349 1.71760862 10.3125 2.0625 C9.44238281 2.25972656 8.57226562 2.45695313 7.67578125 2.66015625 C4.83998724 3.02032279 2.75210018 2.70909969 0 2 C0 1.34 0 0.68 0 0 Z " fill="#5D6BDB" transform="translate(742,184)"/>
<path d="M0 0 C3.48670834 1.1094072 6.77484237 2.26337666 10 4 C10 4.66 10 5.32 10 6 C10.99 6.33 11.98 6.66 13 7 C12.34 7.66 11.68 8.32 11 9 C10.319375 8.401875 9.63875 7.80375 8.9375 7.1875 C5.68325166 4.76412357 2.76063775 3.4747599 -1 2 C-0.67 1.34 -0.34 0.68 0 0 Z " fill="#5D64C5" transform="translate(697,112)"/>
<path d="M0 0 C-3.15506142 0.93619813 -5.96586502 1.1057123 -9.25 1.0625 C-10.14203125 1.05347656 -11.0340625 1.04445313 -11.953125 1.03515625 C-12.62859375 1.02355469 -13.3040625 1.01195313 -14 1 C-14 0.34 -14 -0.32 -14 -1 C-8.51053913 -2.12029814 -5.16569441 -1.79217969 0 0 Z " fill="#6268BE" transform="translate(89,116)"/>
<path d="M0 0 C2.53552912 1.26776456 2.84919575 2.46823065 4 5 C4.33 5.66 4.66 6.32 5 7 C3.02 7.33 1.04 7.66 -1 8 C-1.33 7.01 -1.66 6.02 -2 5 C-1.34 4.01 -0.68 3.02 0 2 C0 1.34 0 0.68 0 0 Z " fill="#5F66E0" transform="translate(483,79)"/>
<path d="M0 0 C2.81939117 2.20979308 5.53058944 4.40062046 8 7 C7.01 7.495 7.01 7.495 6 8 C3.5249829 6.88568235 1.32116581 5.41849022 -1 4 C-0.67 2.68 -0.34 1.36 0 0 Z " fill="#6167C3" transform="translate(4,246)"/>
<path d="M0 0 C4.95 0 9.9 0 15 0 C14 2 14 2 12 2.75 C7.77805606 3.10182866 4.06728898 2.07220472 0 1 C0 0.67 0 0.34 0 0 Z " fill="#5D69D2" transform="translate(261,73)"/>
<path d="M0 0 C-0.33 0.99 -0.66 1.98 -1 3 C-2.32 3 -3.64 3 -5 3 C-5.33 3.66 -5.66 4.32 -6 5 C-6 4.34 -6 3.68 -6 3 C-7.98 3.66 -9.96 4.32 -12 5 C-12.33 4.34 -12.66 3.68 -13 3 C-11.2092015 2.49689942 -9.41733089 1.99761372 -7.625 1.5 C-6.62726563 1.2215625 -5.62953125 0.943125 -4.6015625 0.65625 C-2 0 -2 0 0 0 Z " fill="#5D64CC" transform="translate(163,34)"/>
<path d="M0 0 C3.57011026 3.732388 4.10913442 8.0949989 5 13 C4.67 12.34 4.34 11.68 4 11 C3.34 11 2.68 11 2 11 C0.80712589 7.12315913 0 4.08378077 0 0 Z " fill="#6066CA" transform="translate(593,122)"/>
<path d="M0 0 C3.21524305 1.40844718 5.32183868 3.10344786 7.75 5.625 C8.67039062 6.57246094 8.67039062 6.57246094 9.609375 7.5390625 C10.29773438 8.26222656 10.29773438 8.26222656 11 9 C10.01 9.33 9.02 9.66 8 10 C7.4225 9.2575 6.845 8.515 6.25 7.75 C4.08291977 5.00829198 4.08291977 5.00829198 1.75 2.75 C1.1725 2.1725 0.595 1.595 0 1 C0 0.67 0 0.34 0 0 Z " fill="#585DC7" transform="translate(736,85)"/>
<path d="M0 0 C1.47919922 0.19142578 1.47919922 0.19142578 2.98828125 0.38671875 C4.47908203 0.56654297 4.47908203 0.56654297 6 0.75 C6.75925781 0.85699219 7.51851563 0.96398437 8.30078125 1.07421875 C8.30078125 1.40421875 8.30078125 1.73421875 8.30078125 2.07421875 C3.68078125 2.40421875 -0.93921875 2.73421875 -5.69921875 3.07421875 C-2.69921875 0.07421875 -2.69921875 0.07421875 0 0 Z " fill="#6169C5" transform="translate(334.69921875,118.92578125)"/>
<path d="M0 0 C0 1.32 0 2.64 0 4 C-1.75 4.6875 -1.75 4.6875 -4 5 C-6.25 3.5625 -6.25 3.5625 -8 2 C-5.09399739 0.74335022 -3.20395416 0 0 0 Z " fill="#636BDB" transform="translate(47,73)"/>
<path d="M0 0 C4.95 0.99 4.95 0.99 10 2 C10 2.66 10 3.32 10 4 C10.99 4.33 11.98 4.66 13 5 C8.02693484 4.50269348 4.36200187 3.44697666 0 1 C0 0.67 0 0.34 0 0 Z " fill="#6268C7" transform="translate(706,70)"/>
<path d="M0 0 C2.70108504 0.090916 5.36930311 0.23740766 8.0625 0.4375 C9.20041992 0.51581055 9.20041992 0.51581055 10.36132812 0.59570312 C12.24121722 0.72575835 14.12065685 0.86228038 16 1 C16 1.33 16 1.66 16 2 C13.73044814 2.22185844 11.45926245 2.42705515 9.1875 2.625 C7.29064453 2.79902344 7.29064453 2.79902344 5.35546875 2.9765625 C2 3 2 3 -1 1 C-0.67 0.67 -0.34 0.34 0 0 Z " fill="#5A61D6" transform="translate(44,260)"/>
<path d="M0 0 C1.46067199 0.45082469 2.91848032 0.91093537 4.375 1.375 C5.18710938 1.63023437 5.99921875 1.88546875 6.8359375 2.1484375 C9 3 9 3 11 5 C4.64948454 5.36637589 4.64948454 5.36637589 1.5625 3.625 C0 2 0 2 0 0 Z " fill="#5C67D5" transform="translate(66,139)"/>
<path d="M0 0 C0.99 0.33 1.98 0.66 3 1 C2.67 1.66 2.34 2.32 2 3 C1.77141886 5.0374763 1.58975722 7.08040303 1.4375 9.125 C1.35371094 10.22070312 1.26992187 11.31640625 1.18359375 12.4453125 C1.12300781 13.28835937 1.06242188 14.13140625 1 15 C0.34 14.67 -0.32 14.34 -1 14 C-1.02685938 11.85423363 -1.04633088 9.70837355 -1.0625 7.5625 C-1.07410156 6.36753906 -1.08570313 5.17257813 -1.09765625 3.94140625 C-1 1 -1 1 0 0 Z " fill="#6669C1" transform="translate(4,199)"/>
<path d="M0 0 C4.571279 0.54855348 8.67435795 1.41744803 13 3 C13 3.33 13 3.66 13 4 C3.40546697 3.40546697 3.40546697 3.40546697 0 0 Z " fill="#5F65C4" transform="translate(535,69)"/>
<path d="M0 0 C0 3.63 0 7.26 0 11 C-0.33 11 -0.66 11 -1 11 C-1.02578125 10.37351562 -1.0515625 9.74703125 -1.078125 9.1015625 C-1.13484375 8.28429688 -1.1915625 7.46703125 -1.25 6.625 C-1.29640625 5.81289063 -1.3428125 5.00078125 -1.390625 4.1640625 C-1.7922092 1.81161073 -1.7922092 1.81161073 -4.046875 0.7109375 C-4.69140625 0.47632812 -5.3359375 0.24171875 -6 0 C-4 -1 -4 -1 0 0 Z " fill="#6B6DBB" transform="translate(201,27)"/>
<path d="M0 0 C0 0.33 0 0.66 0 1 C-1.7015625 1.2165625 -1.7015625 1.2165625 -3.4375 1.4375 C-6.80777201 1.61171478 -6.80777201 1.61171478 -8 3 C-10.33297433 3.04092937 -12.66705225 3.04241723 -15 3 C-15 2.67 -15 2.34 -15 2 C-14.05125 1.690625 -13.1025 1.38125 -12.125 1.0625 C-7.28399264 -0.5834425 -5.21266806 -0.86877801 0 0 Z " fill="#5F64CB" transform="translate(82,261)"/>
<path d="M0 0 C3.875 1.75 3.875 1.75 5 4 C5.99 4.66 6.98 5.32 8 6 C5.69 5.67 3.38 5.34 1 5 C0.67 3.35 0.34 1.7 0 0 Z " fill="#5C66DF" transform="translate(50,178)"/>
<path d="M0 0 C0 0.99 0 1.98 0 3 C-2.64 3.99 -5.28 4.98 -8 6 C-7.67 4.68 -7.34 3.36 -7 2 C-4.55683729 0.74709605 -2.75474605 0 0 0 Z " fill="#535CD5" transform="translate(687,111)"/>
<path d="M0 0 C0.33 0 0.66 0 1 0 C1 2.64 1 5.28 1 8 C0.01 8.33 -0.98 8.66 -2 9 C-1.125 1.125 -1.125 1.125 0 0 Z " fill="#5E65D8" transform="translate(364,41)"/>
<path d="M0 0 C-2.71182212 2.60334924 -3.89133813 2.99456691 -7.75 3.1875 C-8.8225 3.125625 -9.895 3.06375 -11 3 C-7.48550811 -0.37391222 -4.73940561 -0.27342725 0 0 Z " fill="#6467C9" transform="translate(479,311)"/>
<path d="M0 0 C2.97 0.33 5.94 0.66 9 1 C7 3 7 3 3.375 3.125 C2.26125 3.08375 1.1475 3.0425 0 3 C0 2.01 0 1.02 0 0 Z " fill="#5764CE" transform="translate(257,257)"/>
<path d="M0 0 C2.80045623 3.14591933 3.35261589 5.067064 3.1875 9.25 C3.16042969 10.14203125 3.13335937 11.0340625 3.10546875 11.953125 C3.07066406 12.62859375 3.03585937 13.3040625 3 14 C2.34 13.67 1.68 13.34 1 13 C0.5859375 10.05859375 0.5859375 10.05859375 0.375 6.4375 C0.30023438 5.23996094 0.22546875 4.04242188 0.1484375 2.80859375 C0.09945313 1.88175781 0.05046875 0.95492187 0 0 Z " fill="#545BCD" transform="translate(362,247)"/>
<path d="M0 0 C0.99 0.99 1.98 1.98 3 3 C2.01 3.495 2.01 3.495 1 4 C1 6.97 1 9.94 1 13 C0.67 13 0.34 13 0 13 C-0.19397476 11.02145742 -0.38001321 9.0421352 -0.5625 7.0625 C-0.66691406 5.96035156 -0.77132813 4.85820312 -0.87890625 3.72265625 C-0.91886719 2.82417969 -0.95882813 1.92570313 -1 1 C-0.67 0.67 -0.34 0.34 0 0 Z " fill="#666DCE" transform="translate(4,221)"/>
<path d="M0 0 C2.475 0.495 2.475 0.495 5 1 C5 2.65 5 4.3 5 6 C3.0625 5.25 3.0625 5.25 1 4 C0.25 1.875 0.25 1.875 0 0 Z " fill="#616BCE" transform="translate(624,225)"/>
<path d="M0 0 C0.99 0 1.98 0 3 0 C1.62845496 2.95409701 0.01136276 5.44008376 -2 8 C-2.66 7.67 -3.32 7.34 -4 7 C-3.34 5.68 -2.68 4.36 -2 3 C-1.34 3 -0.68 3 0 3 C0 2.01 0 1.02 0 0 Z " fill="#5359DA" transform="translate(538,200)"/>
<path d="M0 0 C0.66 0.33 1.32 0.66 2 1 C2 1.99 2 2.98 2 4 C-0.31 4.33 -2.62 4.66 -5 5 C-5 4.34 -5 3.68 -5 3 C-2.625 1.3125 -2.625 1.3125 0 0 Z " fill="#5F68D2" transform="translate(549,256)"/>
<path d="M0 0 C3.93673644 1.31224548 6.22719294 2.91910327 9 6 C5.59687262 4.94124926 2.98646769 3.99097846 0 2 C0 1.34 0 0.68 0 0 Z " fill="#5B64C3" transform="translate(649,249)"/>
<path d="M0 0 C0.33 0 0.66 0 1 0 C1 2.97 1 5.94 1 9 C0.01 8.34 -0.98 7.68 -2 7 C-2.3125 4.5 -2.3125 4.5 -2 2 C-1.34 1.34 -0.68 0.68 0 0 Z " fill="#4E53DC" transform="translate(5,213)"/>
<path d="M0 0 C0.66 0.66 1.32 1.32 2 2 C1.9765625 4.1640625 1.9765625 4.1640625 1.625 6.625 C1.51414062 7.44226563 1.40328125 8.25953125 1.2890625 9.1015625 C1.19367188 9.72804687 1.09828125 10.35453125 1 11 C-0.93137318 7.48077851 -1.26919991 5.0379986 -1 1 C-0.67 0.67 -0.34 0.34 0 0 Z " fill="#5D68E2" transform="translate(364,189)"/>
<path d="M0 0 C3.375 0.3125 3.375 0.3125 7 1 C7.66 1.99 8.32 2.98 9 4 C5.7 3.34 2.4 2.68 -1 2 C-0.67 1.34 -0.34 0.68 0 0 Z " fill="#585DC9" transform="translate(548,73)"/>
<path d="M0 0 C2.64 0 5.28 0 8 0 C7.67 0.66 7.34 1.32 7 2 C4.6859378 2.73075648 2.35171131 3.40138258 0 4 C0 2.68 0 1.36 0 0 Z " fill="#606CDD" transform="translate(380,73)"/>
<path d="M0 0 C0 1.98 0 3.96 0 6 C-0.99 5.67 -1.98 5.34 -3 5 C-3.6875 2.9375 -3.6875 2.9375 -4 1 C-2 0 -2 0 0 0 Z " fill="#636CD6" transform="translate(644,240)"/>
<path d="M0 0 C0.66 0.33 1.32 0.66 2 1 C0.55746343 4.36591866 -1.33264727 6.51047079 -4 9 C-3.34 7.02 -2.68 5.04 -2 3 C-1.34 3 -0.68 3 0 3 C0 2.01 0 1.02 0 0 Z " fill="#575CCE" transform="translate(128,231)"/>
<path d="M0 0 C2.0625 0.4375 2.0625 0.4375 4 1 C3.67 2.65 3.34 4.3 3 6 C2.34 6 1.68 6 1 6 C0.34 4.35 -0.32 2.7 -1 1 C-0.67 0.67 -0.34 0.34 0 0 Z " fill="#5B62DB" transform="translate(539,130)"/>
</svg>
